<svg width="128" height="128" viewBox="0 0 128 128" fill="none" xmlns="http://www.w3.org/2000/svg">
<circle cx="64" cy="64" r="64" fill="#FFCF2B"/>
<path d="M30.5566 58.5277H43.0979C43.3147 58.5277 44.3565 58.6139 44.3565 57.6633C44.3565 56.7126 44.3565 57.0296 44.3565 56.7129" stroke="black" stroke-width="2"/>
<path d="M102.646 71.9052H112.537C112.708 71.9052 113.426 71.9209 113.426 71.2873C113.426 70.6537 113.426 70.0199 113.426 69.7029" stroke="black" stroke-width="2"/>
<path d="M27.9551 53.6972H34.6673C34.7833 53.6972 35.4848 53.5445 35.4848 52.9109C35.4848 52.2773 35.4848 51.9606 35.4848 51.6436" stroke="black" stroke-width="2"/>
<path d="M100.787 64.1018H106.086C106.178 64.1018 107.088 64 107.088 63.0495C107.088 62.099 107.088 62.099 107.088 62.099" stroke="black" stroke-width="2"/>
<path d="M61.3984 67.8176H66.6976C66.7891 67.8176 67.4848 67.802 67.4848 67.4851C67.4848 67.1681 67.4848 66.2178 67.4848 66.2178" stroke="black" stroke-width="2"/>
<path d="M90.1508 77.8505V70.0955C90.1508 70.0955 87.0387 70.0955 85.1343 70.0955C83.2299 70.0955 82.208 68.0889 82.208 66.3311C82.208 64.5733 82.208 60.7896 82.208 58.5923C82.3009 57.9892 82.8769 56.7828 84.4376 56.7828C85.9983 56.7828 86.2026 57.9892 86.1097 58.5923V64.2793C86.2026 64.8394 85.9983 65.9595 87.2245 65.9595C88.4508 65.9595 89.9186 65.9595 90.1508 65.9595V44.6334C90.2437 43.8148 90.8197 42.1776 92.3804 42.1776C93.941 42.1776 94.4241 43.8148 94.4706 44.6334V55.2318H97.9542C98.5581 55.1026 99.7658 54.4822 99.7658 53.0346C99.7658 51.587 99.7658 49.9757 99.7658 49.114C99.7658 48.6401 100.639 47.2183 101.531 47.2183C102.646 47.2183 103.203 48.1834 103.203 48.7004C103.203 49.114 103.203 52.9619 103.203 54.2544C103.203 55.8485 101.41 59.4567 97.9542 59.4567C94.4984 59.4567 95 59.4999 94.4706 59.4567V77.8505" stroke="black" stroke-width="2"/>
<path d="M22.7529 77.8507C26.7785 74.0815 34.8297 65.9777 34.8297 65.9777C34.8297 65.9777 42.8809 73.7046 46.9065 77.8507" stroke="black" stroke-width="2"/>
<path d="M42.0762 73.1161L44.7489 70.4186L52.1808 77.8505" stroke="black" stroke-width="2"/>
<path d="M3.80176 78.0365H124.198" stroke="black" stroke-width="2"/>
<path d="M30 94.1567C30.214 94.1995 30.428 94.2423 30.642 94.2851" stroke="black" stroke-width="2" stroke-linecap="round" stroke-linejoin="round"/>
<path d="M42.583 98.6509C42.797 98.6509 43.011 98.6509 43.225 98.6509" stroke="black" stroke-width="2" stroke-linecap="round" stroke-linejoin="round"/>
<path d="M51.9561 91.8457C52.3508 91.8654 52.3593 91.9115 52.598 92.1025" stroke="black" stroke-width="2" stroke-linecap="round" stroke-linejoin="round"/>
<path d="M62.332 104.94C62.5888 104.94 62.8456 104.94 63.1024 104.94" stroke="black" stroke-width="2" stroke-linecap="round" stroke-linejoin="round"/>
<path d="M83.2432 101.139C83.4572 101.224 83.6712 101.31 83.8852 101.395" stroke="black" stroke-width="2" stroke-linecap="round" stroke-linejoin="round"/>
<path d="M98.8213 92.3594C99.088 92.4727 99.2571 92.5796 99.4633 92.7446" stroke="black" stroke-width="2" stroke-linecap="round" stroke-linejoin="round"/>
<path d="M93.8135 102.375C94.1131 102.375 94.4127 102.375 94.7123 102.375" stroke="black" stroke-width="2" stroke-linecap="round" stroke-linejoin="round"/>
<circle cx="63.9999" cy="39.205" r="13.4921" stroke="black" stroke-width="2"/>
</svg>
