<svg width="74" height="75" viewBox="0 0 74 75" fill="none" xmlns="http://www.w3.org/2000/svg">
<path d="M20.9 45.1H13.7L16.625 17.425L5.5 20.5L1 9L11.5 4.5L18.425 2.125L24.725 1C24.725 1 27.65 6.4 31.25 6.4" stroke="#231F20" stroke-width="2" stroke-miterlimit="10" stroke-linecap="round" stroke-linejoin="round"/>
<path d="M46.5 26.5L45.65 17.65L56.5 21L62 10L51.5 5L44.075 2.125L37.775 1C37.775 1 34.85 6.4 31.25 6.4" stroke="#231F20" stroke-width="2" stroke-miterlimit="10" stroke-linecap="round" stroke-linejoin="round"/>
<path d="M38.3047 45H47.7547" stroke="#231F20" stroke-width="2" stroke-miterlimit="10" stroke-linecap="round" stroke-linejoin="round"/>
<path d="M54.1148 55.1151C59.4747 49.7552 59.4747 41.0651 54.1148 35.7052C48.7549 30.3453 40.0648 30.3453 34.7049 35.7052C29.3451 41.0651 29.3451 49.7552 34.7049 55.1151C40.0648 60.475 48.7549 60.475 54.1148 55.1151Z" stroke="#231F20" stroke-width="2" stroke-miterlimit="10" stroke-linecap="round" stroke-linejoin="round"/>
<path d="M54.0547 55.1758L60.5797 61.7008" stroke="#231F20" stroke-width="2" stroke-miterlimit="10" stroke-linecap="round" stroke-linejoin="round"/>
<path d="M72.5031 69.3508L68.0031 73.8508L58.3281 61.7008L60.3531 59.6758L72.5031 69.3508Z" stroke="#231F20" stroke-width="2" stroke-miterlimit="10" stroke-linecap="round" stroke-linejoin="round"/>
</svg>
