<svg width="92" height="68" viewBox="0 0 92 68" fill="none" xmlns="http://www.w3.org/2000/svg">
<path d="M91 1H1V67H91V1Z" stroke="#231F20" stroke-width="2" stroke-miterlimit="10" stroke-linecap="round" stroke-linejoin="round"/>
<path d="M28 30H18V40H28V30Z" stroke="#231F20" stroke-width="2" stroke-miterlimit="10" stroke-linecap="round" stroke-linejoin="round"/>
<path d="M51 30H41V40H51V30Z" stroke="#231F20" stroke-width="2" stroke-miterlimit="10" stroke-linecap="round" stroke-linejoin="round"/>
<path d="M75 30H65V40H75V30Z" stroke="#231F20" stroke-width="2" stroke-miterlimit="10" stroke-linecap="round" stroke-linejoin="round"/>
<path d="M28 47H18V57H28V47Z" stroke="#231F20" stroke-width="2" stroke-miterlimit="10" stroke-linecap="round" stroke-linejoin="round"/>
<path d="M51 47H41V57H51V47Z" stroke="#231F20" stroke-width="2" stroke-miterlimit="10" stroke-linecap="round" stroke-linejoin="round"/>
<path d="M75 47H65V57H75V47Z" stroke="#231F20" stroke-width="2" stroke-miterlimit="10" stroke-linecap="round" stroke-linejoin="round"/>
<path d="M1.59985 19.3H90.0999" stroke="#231F20" stroke-width="2" stroke-miterlimit="10" stroke-linecap="round" stroke-linejoin="round"/>
<path d="M14.6997 10.3C14.6997 11.4046 13.8043 12.3 12.6997 12.3C11.5951 12.3 10.6997 11.4046 10.6997 10.3C10.6997 9.19542 11.5951 8.29999 12.6997 8.29999C13.8043 8.29999 14.6997 9.19542 14.6997 10.3Z" stroke="black" stroke-width="2"/>
<path d="M23.6997 10.3C23.6997 11.4046 22.8043 12.3 21.6997 12.3C20.5951 12.3 19.6997 11.4046 19.6997 10.3C19.6997 9.19542 20.5951 8.29999 21.6997 8.29999C22.8043 8.29999 23.6997 9.19542 23.6997 10.3Z" stroke="black" stroke-width="2"/>
<path d="M32.6997 10.3C32.6997 11.4046 31.8043 12.3 30.6997 12.3C29.5951 12.3 28.6997 11.4046 28.6997 10.3C28.6997 9.19542 29.5951 8.29999 30.6997 8.29999C31.8043 8.29999 32.6997 9.19542 32.6997 10.3Z" stroke="black" stroke-width="2"/>
</svg>
