<svg width="28" height="28" viewBox="0 0 28 28" fill="none" xmlns="http://www.w3.org/2000/svg">
<rect x="0.5" y="0.5" width="27" height="27" fill="white" stroke="#BDBDBD"/>
<path d="M23.337 15.0861C23.337 15.0861 24.3481 15.8639 24.2703 16.7194C24.1925 17.575 17.037 24.2639 17.037 24.2639C17.037 24.2639 15.8703 25.5861 13.1481 25.5861C10.4259 25.5861 6.07031 26.2083 6.07031 24.1861C6.07031 22.1639 9.57031 22.2417 9.57031 22.2417C9.57031 22.2417 12.5259 18.5083 12.5259 16.175C12.5259 13.8417 11.3592 13.6083 12.7592 13.375C13.3036 13.8417 14.1592 14.1528 15.3259 14.075C16.4925 13.9972 16.1814 15.475 16.1814 15.475C16.1814 15.475 15.0925 14.8528 14.5481 15.9417C14.0036 17.0306 12.837 22.1639 12.2925 22.3972C11.7481 22.6306 9.57031 22.3194 9.57031 22.3194" stroke="#BDBDBD" stroke-miterlimit="10" stroke-linecap="round" stroke-linejoin="round"/>
<path d="M16.1779 15.5554C16.1779 15.5554 17.5779 15.7887 18.4334 15.2443C19.289 14.6999 20.0668 14.0776 20.3779 13.2999C20.689 12.5221 20.5334 11.6665 20.3779 11.511C20.2223 11.3554 20.5334 10.811 20.8445 11.1999C21.2334 11.5887 22.9445 13.4554 23.3334 15.011C23.6445 15.9443 21.8556 16.9554 21.8556 16.9554C21.8556 16.9554 17.889 20.5332 16.8779 22.2443C15.9445 23.9554 14.0001 23.9554 14.0001 23.9554C14.0001 23.9554 9.80009 24.4221 8.47786 24.4999C7.15564 24.5776 6.14453 24.1887 6.14453 24.1887" stroke="#BDBDBD" stroke-miterlimit="10" stroke-linecap="round" stroke-linejoin="round"/>
<path d="M12.8351 13.2205C12.8351 13.2205 11.4351 9.02049 3.89062 3.10938" stroke="#BDBDBD" stroke-miterlimit="10" stroke-linecap="round" stroke-linejoin="round"/>
<path d="M20.3811 11.7427C20.3811 11.7427 14.7033 6.68715 12.9922 3.10938" stroke="#BDBDBD" stroke-miterlimit="10" stroke-linecap="round" stroke-linejoin="round"/>
</svg>
