<svg width="92" height="68" viewBox="0 0 92 68" fill="none" xmlns="http://www.w3.org/2000/svg">
<path d="M29.8003 28.6L37.9003 36.7L46.0003 28.6L54.1003 36.7L62.2003 28.6V55H29.8003V28.6Z" stroke="#231F20" stroke-width="2" stroke-miterlimit="10" stroke-linecap="round" stroke-linejoin="round"/>
<path d="M29.8003 46.9H62.2003" stroke="#231F20" stroke-width="2" stroke-miterlimit="10" stroke-linecap="round" stroke-linejoin="round"/>
<path d="M91 1H1V67H91V1Z" stroke="#231F20" stroke-width="2" stroke-miterlimit="10" stroke-linecap="round" stroke-linejoin="round"/>
<path d="M1.59985 19.3H90.0999" stroke="#231F20" stroke-width="2" stroke-miterlimit="10" stroke-linecap="round" stroke-linejoin="round"/>
<path d="M14.6997 10.3C14.6997 11.4046 13.8043 12.3 12.6997 12.3C11.5951 12.3 10.6997 11.4046 10.6997 10.3C10.6997 9.19542 11.5951 8.29999 12.6997 8.29999C13.8043 8.29999 14.6997 9.19542 14.6997 10.3Z" stroke="black" stroke-width="2"/>
<path d="M23.6997 10.3C23.6997 11.4046 22.8043 12.3 21.6997 12.3C20.5951 12.3 19.6997 11.4046 19.6997 10.3C19.6997 9.19542 20.5951 8.29999 21.6997 8.29999C22.8043 8.29999 23.6997 9.19542 23.6997 10.3Z" stroke="black" stroke-width="2"/>
<path d="M32.6997 10.3C32.6997 11.4046 31.8043 12.3 30.6997 12.3C29.5951 12.3 28.6997 11.4046 28.6997 10.3C28.6997 9.19542 29.5951 8.29999 30.6997 8.29999C31.8043 8.29999 32.6997 9.19542 32.6997 10.3Z" stroke="black" stroke-width="2"/>
</svg>
