<svg width="32" height="32" viewBox="0 0 32 32" fill="none" xmlns="http://www.w3.org/2000/svg">
<path d="M15.7999 24.5001H3.8999L1.8999 7.1001" stroke="#333333" stroke-miterlimit="10" stroke-linecap="round" stroke-linejoin="round"/>
<path d="M15.7998 24.5001H27.6998L29.7998 7.1001" stroke="#333333" stroke-miterlimit="10" stroke-linecap="round" stroke-linejoin="round"/>
<path d="M2 7.1001C4.7 7.1001 5.2 8.9001 6.6 8.9001" stroke="#333333" stroke-miterlimit="10" stroke-linecap="round" stroke-linejoin="round"/>
<path d="M11.1999 7.1001C8.49985 7.1001 7.99985 8.9001 6.59985 8.9001" stroke="#333333" stroke-miterlimit="10" stroke-linecap="round" stroke-linejoin="round"/>
<path d="M20.3998 7.1001C17.6998 7.1001 17.1998 8.9001 15.7998 8.9001" stroke="#333333" stroke-miterlimit="10" stroke-linecap="round" stroke-linejoin="round"/>
<path d="M29.6 7.1001C26.9 7.1001 26.4 8.9001 25 8.9001" stroke="#333333" stroke-miterlimit="10" stroke-linecap="round" stroke-linejoin="round"/>
<path d="M20.3999 7.1001C23.0999 7.1001 23.5999 8.9001 24.9999 8.9001" stroke="#333333" stroke-miterlimit="10" stroke-linecap="round" stroke-linejoin="round"/>
<path d="M11.2 7.1001C13.9 7.1001 14.4 8.9001 15.8 8.9001" stroke="#333333" stroke-miterlimit="10" stroke-linecap="round" stroke-linejoin="round"/>
<path d="M0.5 23.0001L31.2 8.6001" stroke="#333333" stroke-miterlimit="10" stroke-linecap="round" stroke-linejoin="round"/>
<path d="M31.2 23.0001L0.5 8.6001" stroke="#333333" stroke-miterlimit="10" stroke-linecap="round" stroke-linejoin="round"/>
</svg>
