<svg width="245" height="266" viewBox="0 0 245 266" fill="none" xmlns="http://www.w3.org/2000/svg">
<path d="M10.5763 99.5209C6.58849 90.6784 4.33453 81.1424 4.33453 71.4331C4.33453 34.5029 34.3295 4.50791 71.2597 4.50791C108.19 4.50791 138.185 34.5029 138.185 71.4331C138.185 93.2791 132.29 112.698 130.036 119.46H134.717C137.318 111.484 142.693 92.759 142.693 71.4331C142.693 32.0755 110.791 0 71.4331 0C32.0755 0 0 32.0755 0 71.4331C0 81.836 2.25396 92.2389 6.76187 101.775L10.5763 99.5209Z" fill="white"/>
<path d="M153.964 246.375C133.332 238.746 118.767 218.981 118.767 195.921C118.767 187.078 121.021 178.583 124.836 171.301H119.634C116.167 178.756 114.086 187.078 114.086 195.921C114.086 221.235 130.211 242.734 152.75 250.709L153.964 246.375Z" fill="white"/>
<path d="M188.467 138.532C190.201 140.266 190.895 142.866 190.895 146.334L190.374 159.858L184.826 159.684L185.173 146.854C185.173 144.773 184.826 143.213 183.959 142.173C183.092 141.132 181.705 140.612 180.145 140.439C178.238 140.439 176.851 140.959 175.637 142.173C174.423 143.386 173.903 145.12 173.73 147.374L173.383 159.337L167.835 159.164L168.182 146.334C168.182 144.253 167.835 142.693 166.968 141.653C166.101 140.612 164.714 140.092 163.154 139.919C161.246 139.919 159.686 140.439 158.646 141.653C157.432 142.866 156.912 144.6 156.738 146.854L156.392 158.817L150.844 158.644L151.71 135.064L156.912 135.237L156.738 138.185C157.605 137.145 158.819 136.451 160.206 135.931C161.593 135.411 162.98 135.237 164.714 135.237C166.448 135.237 168.008 135.758 169.395 136.451C170.782 137.145 171.823 138.185 172.516 139.572C173.556 138.358 174.77 137.491 176.331 136.798C177.891 136.104 179.625 135.931 181.359 135.931C184.306 135.931 186.733 136.798 188.467 138.532Z" fill="white"/>
<path d="M234.064 196.961L233.717 202.509L210.137 200.949L210.484 195.401L234.064 196.961ZM238.918 197.481C239.612 196.788 240.479 196.614 241.346 196.614C242.213 196.614 243.079 197.135 243.6 197.828C244.12 198.522 244.466 199.389 244.466 200.429C244.466 201.469 244.12 202.163 243.426 202.856C242.733 203.55 242.039 203.723 241.172 203.723C240.132 203.723 239.438 203.203 238.745 202.509C238.051 201.816 237.878 200.949 237.878 199.909C237.878 199.042 238.225 198.175 238.918 197.481Z" fill="white"/>
<path d="M190.899 253.483C188.471 252.79 186.391 251.056 184.83 247.935L178.242 236.145L183.097 233.545L189.338 244.814C190.379 246.548 191.419 247.762 192.806 248.109C194.193 248.629 195.58 248.282 197.14 247.415C198.874 246.375 200.088 245.161 200.435 243.427C200.955 241.867 200.608 239.96 199.394 237.879L193.673 227.476L198.528 224.876L209.797 245.508L205.116 248.109L203.729 245.508C203.382 246.895 202.862 248.109 201.822 249.322C200.955 250.536 199.568 251.403 198.181 252.27C195.753 253.657 193.326 254.177 190.899 253.483Z" fill="white"/>
<path d="M174.592 265.1H168.004L169.391 244.468H173.725L174.592 265.1ZM174.245 234.932C174.939 235.625 175.286 236.492 175.286 237.359C175.286 238.399 174.939 239.093 174.245 239.786C173.552 240.48 172.685 240.653 171.645 240.653C170.604 240.653 169.737 240.307 169.217 239.613C168.524 238.919 168.177 238.226 168.177 237.186C168.177 236.145 168.524 235.452 169.217 234.758C169.911 234.065 170.778 233.718 171.645 233.718C172.685 233.891 173.552 234.238 174.245 234.932Z" fill="white"/>
<path d="M29.6501 104.549L33.2911 108.71L8.84438 130.556L5.20337 126.395L29.6501 104.549Z" fill="white"/>
<path d="M31.208 118.94L35.5426 122.234L21.1519 140.786L16.8174 137.491L31.208 118.94ZM34.3289 115.299C34.1555 114.432 34.3289 113.565 35.0224 112.871C35.7159 112.178 36.4095 111.658 37.2764 111.658C38.1433 111.658 39.0102 111.831 39.8771 112.525C40.744 113.218 41.0908 113.912 41.2641 114.779C41.4375 115.645 41.2641 116.512 40.744 117.206C40.2239 117.899 39.357 118.42 38.49 118.593C37.6231 118.766 36.7562 118.42 35.8893 117.899C34.849 117.032 34.5023 116.166 34.3289 115.299Z" fill="white"/>
<path d="M60.8605 134.197L42.482 152.056L37.2806 149.802L36.9338 124.141L42.3087 126.395V145.294L56.0058 132.117L60.8605 134.197Z" fill="white"/>
<path d="M83.0495 147.548L64.4977 147.894C64.8444 149.628 65.7113 151.015 67.0984 152.056C68.4854 153.096 70.2192 153.443 72.2998 153.443C74.9005 153.443 76.9811 152.576 78.7149 150.842L81.6624 154.136C80.6221 155.35 79.2351 156.39 77.6746 157.084C76.1142 157.777 74.207 158.124 72.2998 158.124C69.6991 158.124 67.4451 157.604 65.3646 156.737C63.4574 155.697 61.8969 154.309 60.6833 152.576C59.643 150.668 58.9495 148.761 58.9495 146.334C58.9495 144.08 59.4696 141.999 60.3365 140.092C61.3768 138.185 62.7639 136.798 64.671 135.758C66.5782 134.717 68.6588 134.197 70.9128 134.197C73.1667 134.197 75.2473 134.717 77.1545 135.584C79.0617 136.625 80.4487 138.012 81.489 139.745C82.5293 141.653 83.0495 143.733 83.0495 146.161C83.0495 146.334 83.0495 146.854 83.0495 147.548ZM66.5782 140.092C65.3646 141.132 64.671 142.52 64.4977 144.253L77.848 144.08C77.5013 142.346 76.8077 140.959 75.5941 139.919C74.3804 138.879 72.82 138.358 71.0862 138.358C69.3523 138.358 67.7919 139.052 66.5782 140.092Z" fill="white"/>
<path d="M99.6965 130.036C99.003 129.343 98.6562 128.649 98.6562 127.609C98.6562 126.742 99.003 125.875 99.6965 125.181C100.39 124.488 101.257 124.314 102.297 124.314C103.338 124.314 104.204 124.661 104.898 125.181C105.591 125.702 105.938 126.568 105.938 127.435C105.938 128.476 105.591 129.169 104.898 129.863C104.204 130.556 103.338 130.903 102.297 130.903C101.257 131.076 100.39 130.73 99.6965 130.036ZM99.3498 134.891H104.898V158.471H99.3498V134.891Z" fill="white"/>
<path d="M131.943 137.318C133.677 139.052 134.717 141.653 134.717 145.12V158.644H129.169V145.64C129.169 143.56 128.649 141.999 127.782 140.959C126.742 139.919 125.355 139.399 123.621 139.399C121.54 139.399 119.98 140.092 118.766 141.306C117.553 142.52 117.033 144.253 117.033 146.507V158.471H111.484V134.891H116.686V138.012C117.553 136.971 118.766 136.104 120.153 135.584C121.54 135.064 123.101 134.717 124.835 134.717C127.782 134.717 130.21 135.584 131.943 137.318Z" fill="white"/>
<path d="M195.577 163.499C195.057 161.418 195.057 159.337 195.577 157.257C196.097 155.176 197.311 153.442 198.871 151.709C200.605 150.148 202.339 149.108 204.419 148.588C206.5 148.068 208.58 148.241 210.661 148.761C212.742 149.455 214.649 150.668 216.209 152.402C217.943 154.136 218.983 156.043 219.677 158.124C220.197 160.204 220.197 162.285 219.677 164.366C219.157 166.446 217.943 168.18 216.383 169.914C214.649 171.474 212.915 172.514 210.834 173.035C208.754 173.555 206.673 173.381 204.593 172.861C202.512 172.168 200.605 170.954 199.045 169.22C197.311 167.486 196.27 165.579 195.577 163.499ZM207.367 168.18C209.274 168.18 211.008 167.486 212.568 165.926C214.129 164.366 214.996 162.632 214.996 160.725C214.996 158.817 214.302 157.084 212.915 155.696C211.528 154.309 209.794 153.442 208.06 153.442C206.153 153.442 204.419 154.136 202.859 155.696C201.298 157.257 200.432 158.991 200.432 160.898C200.432 162.805 200.952 164.366 202.512 165.926C203.899 167.486 205.46 168.18 207.367 168.18Z" fill="white"/>
<path d="M212.047 192.28C211.353 191.76 210.833 191.066 210.313 190.373C209.793 189.506 209.446 188.639 209.099 187.599C208.406 185.171 208.579 182.917 209.446 181.357C210.313 179.623 212.047 178.409 214.648 177.716L225.571 174.768L224.53 170.954L228.865 169.74L229.905 173.555L235.107 172.168L236.494 177.543L231.292 178.93L232.853 184.998L228.518 186.212L226.958 180.143L216.208 183.091C215.168 183.438 214.301 183.958 213.954 184.651C213.434 185.345 213.434 186.212 213.781 187.252C214.127 188.466 214.648 189.332 215.514 190.026L212.047 192.28Z" fill="white"/>
<path d="M209.966 208.751C211.7 207.537 213.78 207.017 215.861 206.844C217.942 206.671 220.022 207.364 222.103 208.404C224.183 209.445 225.744 211.005 226.784 212.739C227.824 214.473 228.344 216.553 228.344 218.634C228.344 220.888 227.824 222.968 226.611 225.049C225.397 227.13 224.01 228.863 222.103 230.077C220.369 231.291 218.288 231.811 216.208 231.984C214.127 231.984 212.047 231.464 209.966 230.424C207.885 229.383 206.325 227.823 205.285 226.089C204.244 224.182 203.551 222.275 203.724 220.021C203.724 217.767 204.244 215.686 205.458 213.606C206.672 211.525 208.059 209.965 209.966 208.751ZM209.099 221.235C209.619 222.968 210.833 224.529 212.914 225.569C214.821 226.609 216.728 226.956 218.635 226.436C220.542 225.916 221.929 224.702 222.796 222.968C223.837 221.235 224.01 219.327 223.49 217.594C222.97 215.86 221.756 214.299 219.675 213.259C217.768 212.219 215.861 211.872 214.127 212.392C212.393 212.912 211.006 213.953 209.966 215.86C208.752 217.767 208.406 219.501 209.099 221.235Z" fill="white"/>
</svg>
