<svg width="119" height="130" viewBox="0 0 119 130" fill="none" xmlns="http://www.w3.org/2000/svg">
<path d="M5.56226 48.9221C3.63587 44.6273 2.54703 39.9957 2.54703 35.2799C2.54703 17.3431 17.0369 2.77468 34.877 2.77468C52.7171 2.77468 67.2069 17.3431 67.2069 35.2799C67.2069 45.8905 64.3592 55.3221 63.2704 58.6063H65.5318C66.7881 54.7326 69.3846 45.6378 69.3846 35.2799C69.3846 16.1642 53.9734 0.585205 34.9607 0.585205C15.948 0.585205 0.453125 16.1642 0.453125 35.2799C0.453125 40.3326 1.54196 45.3852 3.71962 50.0168L5.56226 48.9221Z" fill="#96CD2E"/>
<path d="M74.8265 120.25C64.8595 116.545 57.8239 106.945 57.8239 95.7445C57.8239 91.4498 58.9128 87.3235 60.7554 83.7866H58.2427C56.5676 87.4077 55.5625 91.4498 55.5625 95.7445C55.5625 108.039 63.3518 118.481 74.2402 122.355L74.8265 120.25Z" fill="#96CD2E"/>
<path d="M91.4954 67.8712C92.333 68.7133 92.668 69.9765 92.668 71.6607L92.4168 78.2291L89.7366 78.1449L89.9041 71.9133C89.9041 70.9028 89.7366 70.1449 89.3178 69.6396C88.899 69.1344 88.2289 68.8817 87.4751 68.7975C86.5538 68.7975 85.8838 69.0502 85.2975 69.6396C84.7112 70.2291 84.4599 71.0712 84.3761 72.166L84.2086 77.9765L81.5284 77.8923L81.6959 71.6607C81.6959 70.6502 81.5284 69.8923 81.1097 69.387C80.6909 68.8817 80.0208 68.6291 79.267 68.5449C78.3457 68.5449 77.5919 68.7975 77.0893 69.387C76.5031 69.9765 76.2518 70.8186 76.168 71.9133L76.0005 77.7239L73.3203 77.6396L73.7391 66.187L76.2518 66.2712L76.168 67.7028C76.5868 67.1975 77.1731 66.8607 77.8432 66.6081C78.5132 66.3554 79.1833 66.2712 80.0208 66.2712C80.8584 66.2712 81.6122 66.5238 82.2822 66.8607C82.9523 67.1975 83.4548 67.7028 83.7899 68.3765C84.2924 67.787 84.8787 67.366 85.6325 67.0291C86.3863 66.6923 87.2239 66.6081 88.0614 66.6081C89.4853 66.6081 90.6579 67.0291 91.4954 67.8712Z" fill="#96CD2E"/>
<path d="M113.523 96.243L113.356 98.9377L101.965 98.1798L102.132 95.4851L113.523 96.243ZM115.868 96.4956C116.203 96.1588 116.622 96.0746 117.041 96.0746C117.46 96.0746 117.879 96.3272 118.13 96.6641C118.381 97.0009 118.549 97.422 118.549 97.9272C118.549 98.4325 118.381 98.7693 118.046 99.1062C117.711 99.443 117.376 99.5272 116.957 99.5272C116.455 99.5272 116.12 99.2746 115.785 98.9377C115.45 98.6009 115.366 98.1798 115.366 97.6746C115.366 97.2535 115.533 96.8325 115.868 96.4956Z" fill="#96CD2E"/>
<path d="M92.665 123.701C91.4924 123.364 90.4873 122.522 89.7335 121.006L86.5508 115.28L88.896 114.017L91.9112 119.49C92.4137 120.332 92.9163 120.922 93.5863 121.09C94.2564 121.343 94.9264 121.175 95.6802 120.754C96.5178 120.248 97.1041 119.659 97.2716 118.817C97.5229 118.059 97.3553 117.132 96.7691 116.122L94.0051 111.069L96.3503 109.806L101.794 119.827L99.533 121.09L98.863 119.827C98.6954 120.501 98.4442 121.09 97.9416 121.68C97.5229 122.269 96.8528 122.69 96.1828 123.111C95.0102 123.785 93.8376 124.038 92.665 123.701Z" fill="#96CD2E"/>
<path d="M84.7882 129.343H81.6055L82.2755 119.322H84.3694L84.7882 129.343ZM84.6207 114.69C84.9557 115.027 85.1232 115.448 85.1232 115.869C85.1232 116.374 84.9557 116.711 84.6207 117.048C84.2857 117.385 83.8669 117.469 83.3644 117.469C82.8618 117.469 82.443 117.301 82.1918 116.964C81.8567 116.627 81.6892 116.29 81.6892 115.785C81.6892 115.28 81.8567 114.943 82.1918 114.606C82.5268 114.269 82.9456 114.101 83.3644 114.101C83.8669 114.185 84.2857 114.353 84.6207 114.69Z" fill="#96CD2E"/>
<path d="M14.7745 51.363L16.5334 53.3841L4.72373 63.9946L2.96484 61.9736L14.7745 51.363Z" fill="#96CD2E"/>
<path d="M15.5338 58.3574L17.6277 59.9574L10.6759 68.9679L8.58203 67.3679L15.5338 58.3574ZM17.0414 56.589C16.9577 56.1679 17.0414 55.7469 17.3764 55.41C17.7115 55.0732 18.0465 54.8206 18.4653 54.8206C18.8841 54.8206 19.3028 54.9048 19.7216 55.2416C20.1404 55.5785 20.3079 55.9153 20.3917 56.3363C20.4754 56.7574 20.3917 57.1784 20.1404 57.5153C19.8891 57.8521 19.4704 58.1048 19.0516 58.189C18.6328 58.2732 18.214 58.1048 17.7952 57.8521C17.2927 57.4311 17.1252 57.01 17.0414 56.589Z" fill="#96CD2E"/>
<path d="M29.8552 65.7631L20.9771 74.4368L18.4644 73.3421L18.2969 60.8789L20.8933 61.9736V71.1526L27.5101 64.7526L29.8552 65.7631Z" fill="#96CD2E"/>
<path d="M40.5757 72.243L31.6138 72.4114C31.7813 73.2535 32.2001 73.9272 32.8701 74.4325C33.5402 74.9377 34.3778 75.1062 35.3828 75.1062C36.6392 75.1062 37.6443 74.6851 38.4818 73.843L39.9057 75.443C39.4031 76.0325 38.7331 76.5377 37.9793 76.8746C37.2255 77.2114 36.3042 77.3798 35.3828 77.3798C34.1265 77.3798 33.0377 77.1272 32.0326 76.7062C31.1113 76.2009 30.3575 75.5272 29.7712 74.6851C29.2686 73.7588 28.9336 72.8325 28.9336 71.6535C28.9336 70.5588 29.1849 69.5483 29.6036 68.6219C30.1062 67.6956 30.7762 67.0219 31.6976 66.5167C32.6189 66.0114 33.6239 65.7588 34.7128 65.7588C35.8016 65.7588 36.8067 66.0114 37.728 66.4325C38.6493 66.9377 39.3194 67.6114 39.8219 68.4535C40.3245 69.3798 40.5757 70.3904 40.5757 71.5693C40.5757 71.6535 40.5757 71.9062 40.5757 72.243ZM32.6189 68.6219C32.0326 69.1272 31.6976 69.8009 31.6138 70.643L38.063 70.5588C37.8955 69.7167 37.5605 69.043 36.9742 68.5377C36.3879 68.0325 35.6341 67.7798 34.7965 67.7798C33.959 67.7798 33.2052 68.1167 32.6189 68.6219Z" fill="#96CD2E"/>
<path d="M48.6119 63.744C48.2769 63.4072 48.1094 63.0704 48.1094 62.5651C48.1094 62.144 48.2769 61.723 48.6119 61.3861C48.9469 61.0493 49.3657 60.9651 49.8683 60.9651C50.3708 60.9651 50.7896 61.1335 51.1246 61.3861C51.4596 61.6388 51.6271 62.0598 51.6271 62.4809C51.6271 62.9861 51.4596 63.323 51.1246 63.6598C50.7896 63.9967 50.3708 64.1651 49.8683 64.1651C49.3657 64.2493 48.9469 64.0809 48.6119 63.744ZM48.4444 66.1019H51.1246V77.5546H48.4444V66.1019Z" fill="#96CD2E"/>
<path d="M64.1918 67.2824C65.0294 68.1246 65.5319 69.3877 65.5319 71.0719V77.6403H62.8517V71.3246C62.8517 70.314 62.6005 69.5561 62.1817 69.0509C61.6791 68.5456 61.0091 68.293 60.1715 68.293C59.1665 68.293 58.4127 68.6298 57.8264 69.2193C57.2401 69.8088 56.9888 70.6509 56.9888 71.7456V77.5561H54.3086V66.1035H56.8213V67.6193C57.2401 67.114 57.8264 66.693 58.4964 66.4403C59.1665 66.1877 59.9203 66.0193 60.7578 66.0193C62.1817 66.0193 63.3543 66.4403 64.1918 67.2824Z" fill="#96CD2E"/>
<path d="M94.9267 79.9928C94.6755 78.9823 94.6755 77.9717 94.9267 76.9612C95.178 75.9507 95.7643 75.1086 96.5181 74.2665C97.3557 73.5086 98.1932 73.0033 99.1983 72.7507C100.203 72.498 101.208 72.5823 102.214 72.8349C103.219 73.1717 104.14 73.7612 104.894 74.6033C105.731 75.4454 106.234 76.3717 106.569 77.3823C106.82 78.3928 106.82 79.4033 106.569 80.4138C106.318 81.4244 105.731 82.2665 104.977 83.1086C104.14 83.8665 103.302 84.3717 102.297 84.6244C101.292 84.877 100.287 84.7928 99.2821 84.5402C98.277 84.2033 97.3557 83.6138 96.6019 82.7717C95.7643 81.9296 95.2618 81.0033 94.9267 79.9928ZM100.622 82.2665C101.543 82.2665 102.381 81.9296 103.135 81.1717C103.889 80.4138 104.307 79.5717 104.307 78.6454C104.307 77.7191 103.972 76.877 103.302 76.2033C102.632 75.5296 101.795 75.1086 100.957 75.1086C100.036 75.1086 99.1983 75.4454 98.4445 76.2033C97.6907 76.9612 97.2719 77.8033 97.2719 78.7296C97.2719 79.6559 97.5232 80.4138 98.277 81.1717C98.947 81.9296 99.7008 82.2665 100.622 82.2665Z" fill="#96CD2E"/>
<path d="M102.884 93.973C102.549 93.7204 102.298 93.3835 102.047 93.0467C101.796 92.6256 101.628 92.2046 101.461 91.6993C101.126 90.5204 101.209 89.4256 101.628 88.6677C102.047 87.8256 102.884 87.2362 104.141 86.8993L109.417 85.4677L108.915 83.6151L111.009 83.0256L111.511 84.8783L114.024 84.2046L114.694 86.8151L112.181 87.4888L112.935 90.4362L110.841 91.0256L110.088 88.0783L104.895 89.5098C104.392 89.6783 103.973 89.9309 103.806 90.2677C103.555 90.6046 103.555 91.0256 103.722 91.5309C103.89 92.1204 104.141 92.5414 104.56 92.8783L102.884 93.973Z" fill="#96CD2E"/>
<path d="M101.88 101.976C102.717 101.387 103.722 101.134 104.727 101.05C105.732 100.966 106.737 101.302 107.743 101.808C108.748 102.313 109.501 103.071 110.004 103.913C110.507 104.755 110.758 105.766 110.758 106.776C110.758 107.871 110.507 108.881 109.92 109.892C109.334 110.902 108.664 111.744 107.743 112.334C106.905 112.923 105.9 113.176 104.895 113.26C103.89 113.26 102.885 113.008 101.88 112.502C100.875 111.997 100.121 111.239 99.6182 110.397C99.1157 109.471 98.7806 108.544 98.8644 107.45C98.8644 106.355 99.1157 105.344 99.702 104.334C100.288 103.323 100.958 102.566 101.88 101.976ZM101.461 108.039C101.712 108.881 102.298 109.639 103.303 110.145C104.225 110.65 105.146 110.818 106.067 110.566C106.989 110.313 107.659 109.723 108.078 108.881C108.58 108.039 108.664 107.113 108.413 106.271C108.161 105.429 107.575 104.671 106.57 104.166C105.649 103.66 104.727 103.492 103.89 103.744C103.052 103.997 102.382 104.502 101.88 105.429C101.293 106.355 101.126 107.197 101.461 108.039Z" fill="#96CD2E"/>
</svg>
