<svg width="151" height="91" viewBox="0 0 151 91" fill="none" xmlns="http://www.w3.org/2000/svg">
<path d="M4 22L19.5 21M83.5 34.5L39.5 45.5L37 70.5M129 63C120.333 65.5 95.8 67.8 69 61M138 60.5L147 63.5C145.5 67.1667 143.9 74.9 149.5 76.5C138.3 79.3 114.167 86.3333 103.5 89.5L2 60.5L4 21.5C10.1667 28 15 38.2 39 49M86.4989 46.9997C88.6656 51.6664 87.3989 59.5997 64.9989 53.9997M75.5 36.4997C68.3333 33.9997 53.9 31.4997 53.5 41.4997M92.5 44L56.5 57L55 75.5M146.5 64L102.5 76.5L56.5 64M145.5 71L103 83L55.5 70M38 57L3.5 36.5M37.5 64L2.5 48M71 11C68.6667 10.8333 62.7 9 57.5 3M24 5.5C23.3333 8 20.8 13.3 16 14.5M144.5 52C143.167 51.6667 140.3 50.3 139.5 47.5M149.5 41.5C129 54.5 84.2 64.8 69 2C57 2.8 26.3333 5.33333 12.5 6.5C23.6667 33 57 79.6 101 54C118.5 63.5 138.5 73 149.5 41.5Z" stroke="#32CC91" stroke-width="3" stroke-linecap="round" stroke-linejoin="round"/>
</svg>
