<svg width="119" height="74" viewBox="0 0 119 74" fill="none" xmlns="http://www.w3.org/2000/svg">
<path d="M18.5 54.5H76M89 54.5H100M67 33V22C67 17.0294 70.0294 14 75 14H94C98.9706 14 102 17.0294 102 22V33M67 33C67 37.9706 70.0294 41 75 41H94C98.9706 41 102 37.9706 102 33M67 33H3.5M102 33H115.5M85.5 36C81.9101 36 80 33.0899 80 29.5V25.5C80 21.9101 81.9101 19 85.5 19M85.5 36C89.0899 36 91 33.0899 91 29.5V25.5C91 21.9101 89.0899 19 85.5 19M85.5 36V40.5M85.5 19V15M10 29V25M107 29V25M112 29V25M15 29V25M20 29V25M25 29V25M30 29V25M35 29V25M40 29V25M45 29V25M50 29V25M55 29V25M60 29V25M69.5 39.2011C69.8492 36.5345 72.0507 30 80.0126 30M100.199 38.5028C99.8813 35.8361 98.2255 30 90.9874 30M69 16.2762C69.3492 18.6096 72.1559 24 80.1178 24M100.199 16.4972C99.8813 18.8305 98.1203 24 90.8822 24M3.5 21H67.0428M101.957 21H115.5M17 72H102C110.284 72 117 65.2843 117 57V17C117 8.71573 110.284 2 102 2H17C8.71573 2 2 8.71573 2 17V57C2 65.2843 8.71573 72 17 72Z" stroke="#32CC91" stroke-width="3" stroke-linecap="round" stroke-linejoin="round"/>
</svg>
