<svg width="151" height="91" viewBox="0 0 151 91" fill="none" xmlns="http://www.w3.org/2000/svg">
<path d="M3.5 22L19 21" stroke="black" stroke-width="3" stroke-linecap="round" stroke-linejoin="round"/>
<path d="M3.5 22L19 21" stroke="#FFCF2B" stroke-width="3" stroke-linecap="round" stroke-linejoin="round"/>
<path d="M3.5 22L19 21" stroke="#32CC91" stroke-width="3" stroke-linecap="round" stroke-linejoin="round"/>
<path d="M68.5 2C83.7 64.8 128.5 54.5 149 41.5C138 73 118 63.5 100.5 54C56.5 79.6 23.1667 33 12 6.5C25.8333 5.33333 56.5 2.8 68.5 2Z" stroke="black" stroke-width="3" stroke-linecap="round" stroke-linejoin="round"/>
<path d="M68.5 2C83.7 64.8 128.5 54.5 149 41.5C138 73 118 63.5 100.5 54C56.5 79.6 23.1667 33 12 6.5C25.8333 5.33333 56.5 2.8 68.5 2Z" stroke="#FFCF2B" stroke-width="3" stroke-linecap="round" stroke-linejoin="round"/>
<path d="M68.5 2C83.7 64.8 128.5 54.5 149 41.5C138 73 118 63.5 100.5 54C56.5 79.6 23.1667 33 12 6.5C25.8333 5.33333 56.5 2.8 68.5 2Z" stroke="#32CC91" stroke-width="3" stroke-linecap="round" stroke-linejoin="round"/>
<path d="M83 34.5L39 45.5L36.5 70.5" stroke="black" stroke-width="3" stroke-linecap="round" stroke-linejoin="round"/>
<path d="M83 34.5L39 45.5L36.5 70.5" stroke="#FFCF2B" stroke-width="3" stroke-linecap="round" stroke-linejoin="round"/>
<path d="M83 34.5L39 45.5L36.5 70.5" stroke="#32CC91" stroke-width="3" stroke-linecap="round" stroke-linejoin="round"/>
<path d="M128.5 63C119.833 65.5 95.3 67.8 68.5 61" stroke="black" stroke-width="3" stroke-linecap="round" stroke-linejoin="round"/>
<path d="M128.5 63C119.833 65.5 95.3 67.8 68.5 61" stroke="#FFCF2B" stroke-width="3" stroke-linecap="round" stroke-linejoin="round"/>
<path d="M128.5 63C119.833 65.5 95.3 67.8 68.5 61" stroke="#32CC91" stroke-width="3" stroke-linecap="round" stroke-linejoin="round"/>
<path d="M137.5 60.5L146.5 63.5C145 67.1667 143.4 74.9 149 76.5C137.8 79.3 113.667 86.3333 103 89.5L1.5 60.5L3.5 21.5C9.66667 28 14.5 38.2 38.5 49" stroke="black" stroke-width="3" stroke-linecap="round" stroke-linejoin="round"/>
<path d="M137.5 60.5L146.5 63.5C145 67.1667 143.4 74.9 149 76.5C137.8 79.3 113.667 86.3333 103 89.5L1.5 60.5L3.5 21.5C9.66667 28 14.5 38.2 38.5 49" stroke="#FFCF2B" stroke-width="3" stroke-linecap="round" stroke-linejoin="round"/>
<path d="M137.5 60.5L146.5 63.5C145 67.1667 143.4 74.9 149 76.5C137.8 79.3 113.667 86.3333 103 89.5L1.5 60.5L3.5 21.5C9.66667 28 14.5 38.2 38.5 49" stroke="#32CC91" stroke-width="3" stroke-linecap="round" stroke-linejoin="round"/>
<path d="M85.9989 46.9997C88.1656 51.6664 86.8989 59.5997 64.4989 53.9997M75 36.4997C67.8333 33.9997 53.4 31.4997 53 41.4997" stroke="black" stroke-width="3" stroke-linecap="round" stroke-linejoin="round"/>
<path d="M85.9989 46.9997C88.1656 51.6664 86.8989 59.5997 64.4989 53.9997M75 36.4997C67.8333 33.9997 53.4 31.4997 53 41.4997" stroke="#FFCF2B" stroke-width="3" stroke-linecap="round" stroke-linejoin="round"/>
<path d="M85.9989 46.9997C88.1656 51.6664 86.8989 59.5997 64.4989 53.9997M75 36.4997C67.8333 33.9997 53.4 31.4997 53 41.4997" stroke="#32CC91" stroke-width="3" stroke-linecap="round" stroke-linejoin="round"/>
<path d="M92 44L56 57L54.5 75.5" stroke="black" stroke-width="3" stroke-linecap="round" stroke-linejoin="round"/>
<path d="M92 44L56 57L54.5 75.5" stroke="#FFCF2B" stroke-width="3" stroke-linecap="round" stroke-linejoin="round"/>
<path d="M92 44L56 57L54.5 75.5" stroke="#32CC91" stroke-width="3" stroke-linecap="round" stroke-linejoin="round"/>
<path d="M102 76.5L146 64" stroke="black" stroke-width="3" stroke-linecap="round" stroke-linejoin="round"/>
<path d="M102 76.5L146 64" stroke="#FFCF2B" stroke-width="3" stroke-linecap="round" stroke-linejoin="round"/>
<path d="M102 76.5L146 64" stroke="#32CC91" stroke-width="3" stroke-linecap="round" stroke-linejoin="round"/>
<path d="M145 71L102.5 83" stroke="black" stroke-width="3" stroke-linecap="round" stroke-linejoin="round"/>
<path d="M145 71L102.5 83" stroke="#FFCF2B" stroke-width="3" stroke-linecap="round" stroke-linejoin="round"/>
<path d="M145 71L102.5 83" stroke="#32CC91" stroke-width="3" stroke-linecap="round" stroke-linejoin="round"/>
<path d="M102 76.5L56 64" stroke="black" stroke-width="3" stroke-linecap="round" stroke-linejoin="round"/>
<path d="M102 76.5L56 64" stroke="#FFCF2B" stroke-width="3" stroke-linecap="round" stroke-linejoin="round"/>
<path d="M102 76.5L56 64" stroke="#32CC91" stroke-width="3" stroke-linecap="round" stroke-linejoin="round"/>
<path d="M102.5 83L55 70" stroke="black" stroke-width="3" stroke-linecap="round" stroke-linejoin="round"/>
<path d="M102.5 83L55 70" stroke="#FFCF2B" stroke-width="3" stroke-linecap="round" stroke-linejoin="round"/>
<path d="M102.5 83L55 70" stroke="#32CC91" stroke-width="3" stroke-linecap="round" stroke-linejoin="round"/>
<path d="M37.5 57L3 36.5" stroke="black" stroke-width="3" stroke-linecap="round" stroke-linejoin="round"/>
<path d="M37.5 57L3 36.5" stroke="#FFCF2B" stroke-width="3" stroke-linecap="round" stroke-linejoin="round"/>
<path d="M37.5 57L3 36.5" stroke="#32CC91" stroke-width="3" stroke-linecap="round" stroke-linejoin="round"/>
<path d="M37 64L2 48" stroke="black" stroke-width="3" stroke-linecap="round" stroke-linejoin="round"/>
<path d="M37 64L2 48" stroke="#FFCF2B" stroke-width="3" stroke-linecap="round" stroke-linejoin="round"/>
<path d="M37 64L2 48" stroke="#32CC91" stroke-width="3" stroke-linecap="round" stroke-linejoin="round"/>
<path d="M70.5 11C68.1667 10.8333 62.2 9 57 3" stroke="black" stroke-width="3" stroke-linecap="round" stroke-linejoin="round"/>
<path d="M70.5 11C68.1667 10.8333 62.2 9 57 3" stroke="#FFCF2B" stroke-width="3" stroke-linecap="round" stroke-linejoin="round"/>
<path d="M70.5 11C68.1667 10.8333 62.2 9 57 3" stroke="#32CC91" stroke-width="3" stroke-linecap="round" stroke-linejoin="round"/>
<path d="M23.5 5.5C22.8333 8 20.3 13.3 15.5 14.5" stroke="black" stroke-width="3" stroke-linecap="round" stroke-linejoin="round"/>
<path d="M23.5 5.5C22.8333 8 20.3 13.3 15.5 14.5" stroke="#FFCF2B" stroke-width="3" stroke-linecap="round" stroke-linejoin="round"/>
<path d="M23.5 5.5C22.8333 8 20.3 13.3 15.5 14.5" stroke="#32CC91" stroke-width="3" stroke-linecap="round" stroke-linejoin="round"/>
<path d="M144 52C142.667 51.6667 139.8 50.3 139 47.5" stroke="black" stroke-width="3" stroke-linecap="round" stroke-linejoin="round"/>
<path d="M144 52C142.667 51.6667 139.8 50.3 139 47.5" stroke="#FFCF2B" stroke-width="3" stroke-linecap="round" stroke-linejoin="round"/>
<path d="M144 52C142.667 51.6667 139.8 50.3 139 47.5" stroke="#32CC91" stroke-width="3" stroke-linecap="round" stroke-linejoin="round"/>
</svg>
