<svg width="115" height="70" viewBox="0 0 115 70" fill="none" xmlns="http://www.w3.org/2000/svg">
<path d="M16.5 52.5H74" stroke="black" stroke-width="3" stroke-linecap="round" stroke-linejoin="round"/>
<path d="M16.5 52.5H74" stroke="#FFCF2B" stroke-width="3" stroke-linecap="round" stroke-linejoin="round"/>
<path d="M16.5 52.5H74" stroke="#32CC91" stroke-width="3" stroke-linecap="round" stroke-linejoin="round"/>
<path d="M87 52.5H98" stroke="black" stroke-width="3" stroke-linecap="round" stroke-linejoin="round"/>
<path d="M87 52.5H98" stroke="#FFCF2B" stroke-width="3" stroke-linecap="round" stroke-linejoin="round"/>
<path d="M87 52.5H98" stroke="#32CC91" stroke-width="3" stroke-linecap="round" stroke-linejoin="round"/>
<rect x="1.5" y="1.5" width="112" height="67" rx="13.5" stroke="black" stroke-width="3" stroke-linecap="round" stroke-linejoin="round"/>
<rect x="1.5" y="1.5" width="112" height="67" rx="13.5" stroke="#FFCF2B" stroke-width="3" stroke-linecap="round" stroke-linejoin="round"/>
<rect x="1.5" y="1.5" width="112" height="67" rx="13.5" stroke="#32CC91" stroke-width="3" stroke-linecap="round" stroke-linejoin="round"/>
<rect x="65.5" y="12.5" width="34" height="26" rx="7.5" stroke="black" stroke-width="3" stroke-linecap="round" stroke-linejoin="round"/>
<rect x="65.5" y="12.5" width="34" height="26" rx="7.5" stroke="#FFCF2B" stroke-width="3" stroke-linecap="round" stroke-linejoin="round"/>
<rect x="65.5" y="12.5" width="34" height="26" rx="7.5" stroke="#32CC91" stroke-width="3" stroke-linecap="round" stroke-linejoin="round"/>
<rect x="78.5" y="18.5" width="10" height="14" rx="5" stroke="black" stroke-width="3" stroke-linecap="round" stroke-linejoin="round"/>
<rect x="78.5" y="18.5" width="10" height="14" rx="5" stroke="#FFCF2B" stroke-width="3" stroke-linecap="round" stroke-linejoin="round"/>
<rect x="78.5" y="18.5" width="10" height="14" rx="5" stroke="#32CC91" stroke-width="3" stroke-linecap="round" stroke-linejoin="round"/>
<path d="M83.5 18.5V13" stroke="black" stroke-width="3" stroke-linecap="round" stroke-linejoin="round"/>
<path d="M83.5 18.5V13" stroke="#FFCF2B" stroke-width="3" stroke-linecap="round" stroke-linejoin="round"/>
<path d="M83.5 18.5V13" stroke="#32CC91" stroke-width="3" stroke-linecap="round" stroke-linejoin="round"/>
<path d="M83.5 38.5V33" stroke="black" stroke-width="3" stroke-linecap="round" stroke-linejoin="round"/>
<path d="M83.5 38.5V33" stroke="#FFCF2B" stroke-width="3" stroke-linecap="round" stroke-linejoin="round"/>
<path d="M83.5 38.5V33" stroke="#32CC91" stroke-width="3" stroke-linecap="round" stroke-linejoin="round"/>
<path d="M8 27V23" stroke="black" stroke-width="3" stroke-linecap="round" stroke-linejoin="round"/>
<path d="M8 27V23" stroke="#FFCF2B" stroke-width="3" stroke-linecap="round" stroke-linejoin="round"/>
<path d="M8 27V23" stroke="#32CC91" stroke-width="3" stroke-linecap="round" stroke-linejoin="round"/>
<path d="M104 27V23" stroke="black" stroke-width="3" stroke-linecap="round" stroke-linejoin="round"/>
<path d="M104 27V23" stroke="#FFCF2B" stroke-width="3" stroke-linecap="round" stroke-linejoin="round"/>
<path d="M104 27V23" stroke="#32CC91" stroke-width="3" stroke-linecap="round" stroke-linejoin="round"/>
<path d="M109 27V23" stroke="black" stroke-width="3" stroke-linecap="round" stroke-linejoin="round"/>
<path d="M109 27V23" stroke="#FFCF2B" stroke-width="3" stroke-linecap="round" stroke-linejoin="round"/>
<path d="M109 27V23" stroke="#32CC91" stroke-width="3" stroke-linecap="round" stroke-linejoin="round"/>
<path d="M13 27V23" stroke="black" stroke-width="3" stroke-linecap="round" stroke-linejoin="round"/>
<path d="M13 27V23" stroke="#FFCF2B" stroke-width="3" stroke-linecap="round" stroke-linejoin="round"/>
<path d="M13 27V23" stroke="#32CC91" stroke-width="3" stroke-linecap="round" stroke-linejoin="round"/>
<path d="M18 27V23" stroke="black" stroke-width="3" stroke-linecap="round" stroke-linejoin="round"/>
<path d="M18 27V23" stroke="#FFCF2B" stroke-width="3" stroke-linecap="round" stroke-linejoin="round"/>
<path d="M18 27V23" stroke="#32CC91" stroke-width="3" stroke-linecap="round" stroke-linejoin="round"/>
<path d="M23 27V23" stroke="black" stroke-width="3" stroke-linecap="round" stroke-linejoin="round"/>
<path d="M23 27V23" stroke="#FFCF2B" stroke-width="3" stroke-linecap="round" stroke-linejoin="round"/>
<path d="M23 27V23" stroke="#32CC91" stroke-width="3" stroke-linecap="round" stroke-linejoin="round"/>
<path d="M28 27V23" stroke="black" stroke-width="3" stroke-linecap="round" stroke-linejoin="round"/>
<path d="M28 27V23" stroke="#FFCF2B" stroke-width="3" stroke-linecap="round" stroke-linejoin="round"/>
<path d="M28 27V23" stroke="#32CC91" stroke-width="3" stroke-linecap="round" stroke-linejoin="round"/>
<path d="M33 27V23" stroke="black" stroke-width="3" stroke-linecap="round" stroke-linejoin="round"/>
<path d="M33 27V23" stroke="#FFCF2B" stroke-width="3" stroke-linecap="round" stroke-linejoin="round"/>
<path d="M33 27V23" stroke="#32CC91" stroke-width="3" stroke-linecap="round" stroke-linejoin="round"/>
<path d="M38 27V23" stroke="black" stroke-width="3" stroke-linecap="round" stroke-linejoin="round"/>
<path d="M38 27V23" stroke="#FFCF2B" stroke-width="3" stroke-linecap="round" stroke-linejoin="round"/>
<path d="M38 27V23" stroke="#32CC91" stroke-width="3" stroke-linecap="round" stroke-linejoin="round"/>
<path d="M43 27V23" stroke="black" stroke-width="3" stroke-linecap="round" stroke-linejoin="round"/>
<path d="M43 27V23" stroke="#FFCF2B" stroke-width="3" stroke-linecap="round" stroke-linejoin="round"/>
<path d="M43 27V23" stroke="#32CC91" stroke-width="3" stroke-linecap="round" stroke-linejoin="round"/>
<path d="M48 27V23" stroke="black" stroke-width="3" stroke-linecap="round" stroke-linejoin="round"/>
<path d="M48 27V23" stroke="#FFCF2B" stroke-width="3" stroke-linecap="round" stroke-linejoin="round"/>
<path d="M48 27V23" stroke="#32CC91" stroke-width="3" stroke-linecap="round" stroke-linejoin="round"/>
<path d="M53 27V23" stroke="black" stroke-width="3" stroke-linecap="round" stroke-linejoin="round"/>
<path d="M53 27V23" stroke="#FFCF2B" stroke-width="3" stroke-linecap="round" stroke-linejoin="round"/>
<path d="M53 27V23" stroke="#32CC91" stroke-width="3" stroke-linecap="round" stroke-linejoin="round"/>
<path d="M58 27V23" stroke="black" stroke-width="3" stroke-linecap="round" stroke-linejoin="round"/>
<path d="M58 27V23" stroke="#FFCF2B" stroke-width="3" stroke-linecap="round" stroke-linejoin="round"/>
<path d="M58 27V23" stroke="#32CC91" stroke-width="3" stroke-linecap="round" stroke-linejoin="round"/>
<path d="M68 36C68.3492 33.3333 70.0381 28 78 28" stroke="black" stroke-width="3" stroke-linecap="round" stroke-linejoin="round"/>
<path d="M68 36C68.3492 33.3333 70.0381 28 78 28" stroke="#FFCF2B" stroke-width="3" stroke-linecap="round" stroke-linejoin="round"/>
<path d="M68 36C68.3492 33.3333 70.0381 28 78 28" stroke="#32CC91" stroke-width="3" stroke-linecap="round" stroke-linejoin="round"/>
<path d="M97 36C96.6825 33.3333 95.7381 28 88.5 28" stroke="black" stroke-width="3" stroke-linecap="round" stroke-linejoin="round"/>
<path d="M97 36C96.6825 33.3333 95.7381 28 88.5 28" stroke="#FFCF2B" stroke-width="3" stroke-linecap="round" stroke-linejoin="round"/>
<path d="M97 36C96.6825 33.3333 95.7381 28 88.5 28" stroke="#32CC91" stroke-width="3" stroke-linecap="round" stroke-linejoin="round"/>
<path d="M68 15.5C68.3492 17.8333 70.0381 22 78 22" stroke="black" stroke-width="3" stroke-linecap="round" stroke-linejoin="round"/>
<path d="M68 15.5C68.3492 17.8333 70.0381 22 78 22" stroke="#FFCF2B" stroke-width="3" stroke-linecap="round" stroke-linejoin="round"/>
<path d="M68 15.5C68.3492 17.8333 70.0381 22 78 22" stroke="#32CC91" stroke-width="3" stroke-linecap="round" stroke-linejoin="round"/>
<path d="M97 15C96.6825 17.3333 95.7381 22 88.5 22" stroke="black" stroke-width="3" stroke-linecap="round" stroke-linejoin="round"/>
<path d="M97 15C96.6825 17.3333 95.7381 22 88.5 22" stroke="#FFCF2B" stroke-width="3" stroke-linecap="round" stroke-linejoin="round"/>
<path d="M97 15C96.6825 17.3333 95.7381 22 88.5 22" stroke="#32CC91" stroke-width="3" stroke-linecap="round" stroke-linejoin="round"/>
<path d="M1.5 19H65" stroke="black" stroke-width="3" stroke-linecap="round" stroke-linejoin="round"/>
<path d="M1.5 19H65" stroke="#FFCF2B" stroke-width="3" stroke-linecap="round" stroke-linejoin="round"/>
<path d="M1.5 19H65" stroke="#32CC91" stroke-width="3" stroke-linecap="round" stroke-linejoin="round"/>
<path d="M99.5 19H106.25H113.5" stroke="black" stroke-width="3" stroke-linecap="round" stroke-linejoin="round"/>
<path d="M99.5 19H106.25H113.5" stroke="#FFCF2B" stroke-width="3" stroke-linecap="round" stroke-linejoin="round"/>
<path d="M99.5 19H106.25H113.5" stroke="#32CC91" stroke-width="3" stroke-linecap="round" stroke-linejoin="round"/>
<path d="M1.5 31H65" stroke="black" stroke-width="3" stroke-linecap="round" stroke-linejoin="round"/>
<path d="M1.5 31H65" stroke="#FFCF2B" stroke-width="3" stroke-linecap="round" stroke-linejoin="round"/>
<path d="M1.5 31H65" stroke="#32CC91" stroke-width="3" stroke-linecap="round" stroke-linejoin="round"/>
<path d="M99.5 31H106.25H113.5" stroke="black" stroke-width="3" stroke-linecap="round" stroke-linejoin="round"/>
<path d="M99.5 31H106.25H113.5" stroke="#FFCF2B" stroke-width="3" stroke-linecap="round" stroke-linejoin="round"/>
<path d="M99.5 31H106.25H113.5" stroke="#32CC91" stroke-width="3" stroke-linecap="round" stroke-linejoin="round"/>
</svg>
