<svg width="181" height="109" viewBox="0 0 181 109" fill="none" xmlns="http://www.w3.org/2000/svg">
<path d="M154.858 106.073L138.629 92.8354L137.093 92.1347L132.581 92.5335L126.881 91.4691L117.153 87.0316L112.453 85.8091L108.265 84.8201L104.936 83.302L104.004 81.9555L104.584 80.6844L107.98 80.6979L116.1 82.5591L105.28 79.1591L102.72 77.9913L101.507 75.9028L102.087 74.6318L107.227 74.2123L111.671 75.318M111.671 75.318L108.343 73.7999L102.851 71.6019L101.291 70.276L100.822 67.9126L102.03 66.6209L107.078 67.0808L109.638 68.2486L120.598 72.0195M111.671 75.318L119.351 78.8213M120.598 72.0195L123.206 74.4377M120.598 72.0195L115.314 68.6878L110.682 65.9606L108.841 63.8928L108.281 62.4088L108.465 60.65L110.557 59.4544L113.093 59.9969L119.145 63.679L124.313 67.2649L128.617 67.9997L132.177 69.0093L133.221 66.7214L132.284 61.9946L131.492 61.0191L130.604 57.5428L132.251 54.609L135.555 55.5018L137.468 59.4453L138.192 61.9254L139.312 64.8934L141.201 68.2116L142.442 74.3056L143.263 79.2865L144.567 80.4956L161.932 90.5662" stroke="#E13EAF" stroke-width="3" stroke-linecap="round" stroke-linejoin="round"/>
<path d="M154.858 106.073L138.629 92.8354L137.093 92.1347L132.581 92.5335L126.881 91.4691L117.153 87.0316L112.453 85.8091L108.265 84.8201L104.936 83.302L104.004 81.9555L104.584 80.6844L107.98 80.6979L116.1 82.5591L105.28 79.1591L102.72 77.9913L101.507 75.9028L102.087 74.6318L107.227 74.2123L111.671 75.318M111.671 75.318L108.343 73.7999L102.851 71.6019L101.291 70.276L100.822 67.9126L102.03 66.6209L107.078 67.0808L109.638 68.2486L120.598 72.0195M111.671 75.318L119.351 78.8213M120.598 72.0195L123.206 74.4377M120.598 72.0195L115.314 68.6878L110.682 65.9606L108.841 63.8928L108.281 62.4088L108.465 60.65L110.557 59.4544L113.093 59.9969L119.145 63.679L124.313 67.2649L128.617 67.9997L132.177 69.0093L133.221 66.7214L132.284 61.9946L131.492 61.0191L130.604 57.5428L132.251 54.609L135.555 55.5018L137.468 59.4453L138.192 61.9254L139.312 64.8934L141.201 68.2116L142.442 74.3056L143.263 79.2865L144.567 80.4956L161.932 90.5662" stroke="url(#paint0_linear)" stroke-width="3" stroke-linecap="round" stroke-linejoin="round"/>
<path d="M154.858 106.073L138.629 92.8354L137.093 92.1347L132.581 92.5335L126.881 91.4691L117.153 87.0316L112.453 85.8091L108.265 84.8201L104.936 83.302L104.004 81.9555L104.584 80.6844L107.98 80.6979L116.1 82.5591L105.28 79.1591L102.72 77.9913L101.507 75.9028L102.087 74.6318L107.227 74.2123L111.671 75.318M111.671 75.318L108.343 73.7999L102.851 71.6019L101.291 70.276L100.822 67.9126L102.03 66.6209L107.078 67.0808L109.638 68.2486L120.598 72.0195M111.671 75.318L119.351 78.8213M120.598 72.0195L123.206 74.4377M120.598 72.0195L115.314 68.6878L110.682 65.9606L108.841 63.8928L108.281 62.4088L108.465 60.65L110.557 59.4544L113.093 59.9969L119.145 63.679L124.313 67.2649L128.617 67.9997L132.177 69.0093L133.221 66.7214L132.284 61.9946L131.492 61.0191L130.604 57.5428L132.251 54.609L135.555 55.5018L137.468 59.4453L138.192 61.9254L139.312 64.8934L141.201 68.2116L142.442 74.3056L143.263 79.2865L144.567 80.4956L161.932 90.5662" stroke="#96CD2E" stroke-width="3" stroke-linecap="round" stroke-linejoin="round"/>
<path d="M178.682 38.5926L149.45 39.2373L146.566 38.0629L142.389 34.589L140.124 32.894L136.536 31.8877L135.312 31.4347L134.624 30.1087L131.487 27.8768L129.123 27.3234L126.308 27.9955L125.589 29.6576L127.218 33.3671L129.835 34.978L130.116 36.1557" stroke="#E13EAF" stroke-width="3" stroke-linecap="round" stroke-linejoin="round"/>
<path d="M178.682 38.5926L149.45 39.2373L146.566 38.0629L142.389 34.589L140.124 32.894L136.536 31.8877L135.312 31.4347L134.624 30.1087L131.487 27.8768L129.123 27.3234L126.308 27.9955L125.589 29.6576L127.218 33.3671L129.835 34.978L130.116 36.1557" stroke="url(#paint1_linear)" stroke-width="3" stroke-linecap="round" stroke-linejoin="round"/>
<path d="M178.682 38.5926L149.45 39.2373L146.566 38.0629L142.389 34.589L140.124 32.894L136.536 31.8877L135.312 31.4347L134.624 30.1087L131.487 27.8768L129.123 27.3234L126.308 27.9955L125.589 29.6576L127.218 33.3671L129.835 34.978L130.116 36.1557" stroke="#96CD2E" stroke-width="3" stroke-linecap="round" stroke-linejoin="round"/>
<path d="M115.941 93.0988L113.754 99.789L70.1817 85.0348L83.7725 40.2171L123.263 54.2914" stroke="#E13EAF" stroke-width="3" stroke-linecap="round" stroke-linejoin="round"/>
<path d="M115.941 93.0988L113.754 99.789L70.1817 85.0348L83.7725 40.2171L123.263 54.2914" stroke="url(#paint2_linear)" stroke-width="3" stroke-linecap="round" stroke-linejoin="round"/>
<path d="M115.941 93.0988L113.754 99.789L70.1817 85.0348L83.7725 40.2171L123.263 54.2914" stroke="#96CD2E" stroke-width="3" stroke-linecap="round" stroke-linejoin="round"/>
<path d="M84.4314 38.7776L92.7321 24.0809L139.547 40.8366" stroke="#E13EAF" stroke-width="3" stroke-linecap="round" stroke-linejoin="round"/>
<path d="M84.4314 38.7776L92.7321 24.0809L139.547 40.8366" stroke="url(#paint3_linear)" stroke-width="3" stroke-linecap="round" stroke-linejoin="round"/>
<path d="M84.4314 38.7776L92.7321 24.0809L139.547 40.8366" stroke="#96CD2E" stroke-width="3" stroke-linecap="round" stroke-linejoin="round"/>
<path d="M139.545 40.8354L136.225 48.114" stroke="#E13EAF" stroke-width="3" stroke-linecap="round" stroke-linejoin="round"/>
<path d="M139.545 40.8354L136.225 48.114" stroke="url(#paint4_linear)" stroke-width="3" stroke-linecap="round" stroke-linejoin="round"/>
<path d="M139.545 40.8354L136.225 48.114" stroke="#96CD2E" stroke-width="3" stroke-linecap="round" stroke-linejoin="round"/>
<path d="M152.032 52.0252L168.665 54.1161" stroke="#E13EAF" stroke-width="3" stroke-linecap="round" stroke-linejoin="round"/>
<path d="M152.032 52.0252L168.665 54.1161" stroke="url(#paint5_linear)" stroke-width="3" stroke-linecap="round" stroke-linejoin="round"/>
<path d="M152.032 52.0252L168.665 54.1161" stroke="#96CD2E" stroke-width="3" stroke-linecap="round" stroke-linejoin="round"/>
<path d="M10.5076 20.7621L28.7346 28.0956L32.9069 27.5474L40.5181 22.6845L47.2393 20.8475L50.785 19.5232L55.3632 19.1601L58.204 20.4559L58.2752 22.4495L55.5768 25.1408L51.8103 25.8742L48.8556 26.9778L48.1151 28.6011L51.4686 33.0724L55.1211 34.7385L57.5561 35.8492L60.3614 36.1482L62.7964 37.2589L64.79 37.1877L69.5461 41.8086L68.6205 43.8377L65.2599 44.7562C63.7837 44.4097 60.7501 43.6797 60.4255 43.5316C60.1008 43.3835 58.2729 42.8766 57.3995 42.6416L52.3443 40.826L56.2532 44.0798L59.4999 45.5608L62.9673 47.6327L64.9965 48.5583L69.126 52.403L68.6063 54.6173C67.9536 54.9733 66.5671 55.6483 66.2425 55.5002C65.9178 55.3521 62.3431 54.3752 60.5964 53.9053L56.0966 50.8723L49.1973 47.7253L57.1646 52.8302L60.4468 55.308L61.9563 58.4479L61.6216 60.2563L58.0403 60.5838L53.7256 57.1449L49.2258 54.1118L54.7936 59.1029L55.4558 60.8758L54.7153 62.4991C54.0508 62.5228 52.6406 62.5333 52.3159 62.3852C51.9912 62.2371 48.7631 59.784 47.1895 58.576L41.6574 54.5818L38.6314 53.6918L31.9173 50.1389L27.3463 45.1123L24.6193 41.417L21.7785 40.1212L3.69386 36.7749" stroke="#E13EAF" stroke-width="3" stroke-linecap="round" stroke-linejoin="round"/>
<path d="M10.5076 20.7621L28.7346 28.0956L32.9069 27.5474L40.5181 22.6845L47.2393 20.8475L50.785 19.5232L55.3632 19.1601L58.204 20.4559L58.2752 22.4495L55.5768 25.1408L51.8103 25.8742L48.8556 26.9778L48.1151 28.6011L51.4686 33.0724L55.1211 34.7385L57.5561 35.8492L60.3614 36.1482L62.7964 37.2589L64.79 37.1877L69.5461 41.8086L68.6205 43.8377L65.2599 44.7562C63.7837 44.4097 60.7501 43.6797 60.4255 43.5316C60.1008 43.3835 58.2729 42.8766 57.3995 42.6416L52.3443 40.826L56.2532 44.0798L59.4999 45.5608L62.9673 47.6327L64.9965 48.5583L69.126 52.403L68.6063 54.6173C67.9536 54.9733 66.5671 55.6483 66.2425 55.5002C65.9178 55.3521 62.3431 54.3752 60.5964 53.9053L56.0966 50.8723L49.1973 47.7253L57.1646 52.8302L60.4468 55.308L61.9563 58.4479L61.6216 60.2563L58.0403 60.5838L53.7256 57.1449L49.2258 54.1118L54.7936 59.1029L55.4558 60.8758L54.7153 62.4991C54.0508 62.5228 52.6406 62.5333 52.3159 62.3852C51.9912 62.2371 48.7631 59.784 47.1895 58.576L41.6574 54.5818L38.6314 53.6918L31.9173 50.1389L27.3463 45.1123L24.6193 41.417L21.7785 40.1212L3.69386 36.7749" stroke="url(#paint6_linear)" stroke-width="3" stroke-linecap="round" stroke-linejoin="round"/>
<path d="M10.5076 20.7621L28.7346 28.0956L32.9069 27.5474L40.5181 22.6845L47.2393 20.8475L50.785 19.5232L55.3632 19.1601L58.204 20.4559L58.2752 22.4495L55.5768 25.1408L51.8103 25.8742L48.8556 26.9778L48.1151 28.6011L51.4686 33.0724L55.1211 34.7385L57.5561 35.8492L60.3614 36.1482L62.7964 37.2589L64.79 37.1877L69.5461 41.8086L68.6205 43.8377L65.2599 44.7562C63.7837 44.4097 60.7501 43.6797 60.4255 43.5316C60.1008 43.3835 58.2729 42.8766 57.3995 42.6416L52.3443 40.826L56.2532 44.0798L59.4999 45.5608L62.9673 47.6327L64.9965 48.5583L69.126 52.403L68.6063 54.6173C67.9536 54.9733 66.5671 55.6483 66.2425 55.5002C65.9178 55.3521 62.3431 54.3752 60.5964 53.9053L56.0966 50.8723L49.1973 47.7253L57.1646 52.8302L60.4468 55.308L61.9563 58.4479L61.6216 60.2563L58.0403 60.5838L53.7256 57.1449L49.2258 54.1118L54.7936 59.1029L55.4558 60.8758L54.7153 62.4991C54.0508 62.5228 52.6406 62.5333 52.3159 62.3852C51.9912 62.2371 48.7631 59.784 47.1895 58.576L41.6574 54.5818L38.6314 53.6918L31.9173 50.1389L27.3463 45.1123L24.6193 41.417L21.7785 40.1212L3.69386 36.7749" stroke="#96CD2E" stroke-width="3" stroke-linecap="round" stroke-linejoin="round"/>
<defs>
<linearGradient id="paint0_linear" x1="147.103" y1="60.7693" x2="131.333" y2="95.3425" gradientUnits="userSpaceOnUse">
<stop stop-color="#96CD2E"/>
<stop offset="1" stop-color="#32CC91"/>
</linearGradient>
<linearGradient id="paint1_linear" x1="154.286" y1="21.3162" x2="159.503" y2="43.1713" gradientUnits="userSpaceOnUse">
<stop stop-color="#96CD2E"/>
<stop offset="1" stop-color="#32CC91"/>
</linearGradient>
<linearGradient id="paint2_linear" x1="113.75" y1="49.9521" x2="92.9999" y2="95.4431" gradientUnits="userSpaceOnUse">
<stop stop-color="#96CD2E"/>
<stop offset="1" stop-color="#32CC91"/>
</linearGradient>
<linearGradient id="paint3_linear" x1="121.089" y1="32.417" x2="112.374" y2="51.5232" gradientUnits="userSpaceOnUse">
<stop stop-color="#96CD2E"/>
<stop offset="1" stop-color="#32CC91"/>
</linearGradient>
<linearGradient id="paint4_linear" x1="140.093" y1="41.0854" x2="136.773" y2="48.3639" gradientUnits="userSpaceOnUse">
<stop stop-color="#96CD2E"/>
<stop offset="1" stop-color="#32CC91"/>
</linearGradient>
<linearGradient id="paint5_linear" x1="162.874" y1="51.4747" x2="160.799" y2="56.0238" gradientUnits="userSpaceOnUse">
<stop stop-color="#96CD2E"/>
<stop offset="1" stop-color="#32CC91"/>
</linearGradient>
<linearGradient id="paint6_linear" x1="55.497" y1="19.2211" x2="38.6513" y2="56.1522" gradientUnits="userSpaceOnUse">
<stop stop-color="#96CD2E"/>
<stop offset="1" stop-color="#32CC91"/>
</linearGradient>
</defs>
</svg>
