<svg width="79" height="129" viewBox="0 0 79 129" fill="none" xmlns="http://www.w3.org/2000/svg">
<path d="M28 49C27.2 49.4 11.8333 56.1667 2 60.5M2 60.5L40.5 77M2 60.5C2.16667 72 3.5 109.1 3.5 109.5C3.5 109.9 30.8333 122.333 42 127.5M40.5 77L77.5 62L53.5 51M40.5 77L42 127.5M77.5 62.5V111L42 127.5M38.998 46.9999L29.998 18.9999C28.8314 14.1666 28.2969 3.62093 35.498 3.99992C45 4.5 48.9963 14.5 48.9963 20C48.9963 27.5 42.3308 40.3333 38.998 46.9999ZM38.998 46.9999L46.5 44.5C52 33.5 55 27 55.5 18C56.0556 8 48 2 46 2C44.4 2 34.8333 3.66659 34 3.99992M39.6316 20.5C38.6976 20.5003 36.2687 18.2083 36.5178 14.9556C36.7669 11.703 38.6975 12.3683 39.6316 13.1075C40.2544 13.4773 41.5 14.8081 41.5 17.1737C41.5 19.5393 40.5656 20.4997 39.6316 20.5Z" stroke="#96CD2E" stroke-width="3" stroke-linecap="round" stroke-linejoin="round"/>
</svg>
