<svg width="179" height="91" viewBox="0 0 179 91" fill="none" xmlns="http://www.w3.org/2000/svg">
<path d="M152.866 89.0732L136.637 75.8353L135.101 75.1346L130.589 75.5335L124.889 74.469L115.16 70.0316L110.46 68.809L106.272 67.82L102.944 66.3019L102.012 64.9554L102.592 63.6843L105.988 63.6978L114.108 65.559L103.288 62.1591L100.728 60.9913L99.5152 58.9028L100.095 57.6317L105.235 57.2122L109.679 58.318M109.679 58.318L106.351 56.7999L100.859 54.6018L99.2984 53.2759L98.83 50.9126L100.038 49.6208L105.086 50.0807L107.646 51.2485L118.606 55.0195M109.679 58.318L117.359 61.8213M118.606 55.0195L121.214 57.4376M118.606 55.0195L113.322 51.6877L108.689 48.9606L106.849 46.8927L106.289 45.4088L106.473 43.6499L108.564 42.4543L111.1 42.9969L117.153 46.6789L122.321 50.2648L126.625 50.9996L130.185 52.0093L131.229 49.7213L130.292 44.9946L129.5 44.0191L128.611 40.5427L130.259 37.6089L133.563 38.5018L135.476 42.4452L136.2 44.9254L137.32 47.8933L139.209 51.2116L140.45 57.3055L141.27 62.2865L142.575 63.4956L159.94 73.5662M176.69 21.5926L147.458 22.2372L144.574 21.0628L140.397 17.5889L138.132 15.894L134.544 14.8876L133.32 14.4347L132.631 13.1087L129.495 10.8768L127.131 10.3233L124.316 10.9955L123.596 12.6575L125.226 16.367L127.842 17.9779L128.123 19.1556M113.949 76.0988L111.761 82.7889L68.1895 68.0347L81.7803 23.2171L121.271 37.2913M82.4392 21.7775L90.7399 7.08085L137.555 23.8365M137.553 23.8354L134.233 31.114M150.04 35.0251L166.672 37.1161M8.51541 3.76209L26.7424 11.0956L30.9147 10.5473L38.5259 5.68442L45.2471 3.84747L48.7929 2.52316L53.371 2.16003L56.2118 3.45586L56.283 5.44944L53.5846 8.14077L49.8181 8.87413L46.8634 9.97773L46.1229 11.6011L49.4764 16.0724L55.5639 18.8491L58.3692 19.1482L60.8042 20.2589L62.7978 20.1877L67.5539 24.8085L66.6283 26.8377L63.2677 27.7562C61.7915 27.4097 58.7579 26.6796 58.4333 26.5315C58.1086 26.3835 56.2807 25.8765 55.4073 25.6416L50.3521 23.826L54.261 27.0798L57.5077 28.5607L60.9751 30.6326L63.0043 31.5582L67.1338 35.403L66.6141 37.6173C65.9614 37.9733 64.5749 38.6482 64.2503 38.5001C63.9256 38.352 60.3509 37.3752 58.6042 36.9053L54.1044 33.8722L47.2052 30.7252L55.1724 35.8302L58.4547 38.3079L59.9641 41.4478L59.6294 43.2563L56.0481 43.5838L51.7334 40.1449L47.2336 37.1118L52.8014 42.1028L53.4636 43.8757L52.7231 45.4991C52.0586 45.5228 50.6484 45.5332 50.3237 45.3851C49.999 45.237 46.7709 42.784 45.1973 41.576L39.6652 37.5817L36.6392 36.6917L29.9251 33.1389L25.3541 28.1122L22.6271 24.417L19.7863 23.1212L1.70166 19.7748" stroke="#96CD2E" stroke-width="3" stroke-linecap="round" stroke-linejoin="round"/>
</svg>
