<?xml version="1.0" encoding="utf-8"?><svg xmlns="http://www.w3.org/2000/svg" xmlns:xlink="http://www.w3.org/1999/xlink"><symbol viewBox="0 0 24 19" id="basket" xmlns="http://www.w3.org/2000/svg"><path d="M1 2.471L3.943 1l4.413 12.506 11.035-1.472 2.942-7.356H5.267M6.885 17.92a1.471 1.471 0 1 0 0-2.943 1.471 1.471 0 0 0 0 2.943zm12.505 0a1.471 1.471 0 1 0 0-2.943 1.471 1.471 0 0 0 0 2.942z"/></symbol><symbol viewBox="0 0 344.96 344.96" id="check" xmlns="http://www.w3.org/2000/svg"><g data-name="Слой 2"><path d="M321.85 86.24l-40-23.11-23.1-40H212.5L172.48 0l-40 23.11H86.24l-23.11 40-40 23.1v46.21L0 172.48l23.11 40v46.21l40 23.11 23.11 40h46.21l40 23.1 40-23.11h46.21l23.11-40 40-23.11V212.5l23.11-40-23.11-40V86.24zM156.91 243.07a16.79 16.79 0 0 1-23.34 0l-50.45-50.44a16.19 16.19 0 0 1 0-22.89l13.35-13.35a16.19 16.19 0 0 1 22.89 0l25.87 25.87 80.34-80.35a16.19 16.19 0 0 1 22.89 0l13.35 13.35a16.19 16.19 0 0 1 0 22.89z" data-name="Capa 1"/></g></symbol><symbol viewBox="0 0 32 33" id="fb" xmlns="http://www.w3.org/2000/svg"><path d="M28 1.3H4c-1.7 0-3 1.4-3 3v24c0 1.6 1.3 3 3 3h24c1.6 0 3-1.4 3-3v-24c0-1.6-1.4-3-3-3z"/><path d="M21.002 30.8V12.5s-.3-3.7 2.5-3.7h1.2M17.2 16.3h7.5"/></symbol><symbol viewBox="0 0 32 32" id="insta" xmlns="http://www.w3.org/2000/svg"><path d="M16 20a4 4 0 1 0 0-8 4 4 0 0 0 0 8zM21 12a1 1 0 1 1 0-2 1 1 0 0 1 0 2z"/><rect x="7" y="7" width="18" height="18" rx="5"/><rect x="1" y="1" width="30" height="30" rx="7"/></symbol><symbol viewBox="0 0 71 74" id="logo" xmlns="http://www.w3.org/2000/svg"><path d="M3.929 27.862c-1.131-2.44-1.77-5.072-1.77-7.751 0-10.191 8.507-18.469 18.98-18.469 10.475 0 18.982 8.278 18.982 18.469 0 6.029-1.672 11.387-2.311 13.253h1.328c.737-2.2 2.262-7.368 2.262-13.253C41.4 9.25 32.35.398 21.189.398 10.026.398.929 9.25.929 20.111c0 2.87.64 5.741 1.918 8.373l1.082-.622zM44.595 68.39c-5.851-2.106-9.982-7.56-9.982-13.924 0-2.44.64-4.785 1.721-6.794H34.86c-.983 2.057-1.574 4.354-1.574 6.794 0 6.986 4.574 12.918 10.966 15.12l.344-1.197zm9.787-29.757c.492.479.689 1.197.689 2.153l-.148 3.733-1.574-.048.099-3.541c0-.574-.099-1.005-.345-1.292-.245-.287-.639-.43-1.081-.478-.541 0-.935.143-1.279.478-.344.335-.492.814-.54 1.436l-.1 3.3-1.573-.047.099-3.54c0-.575-.099-1.005-.344-1.292-.246-.287-.64-.431-1.082-.479-.541 0-.984.144-1.279.479-.344.335-.492.813-.54 1.435l-.1 3.301-1.573-.047.246-6.508 1.475.048-.049.814c.246-.287.59-.479.984-.622.393-.144.787-.192 1.278-.192.492 0 .934.144 1.328.335.393.192.688.479.885.861a2.93 2.93 0 0 1 1.082-.765c.443-.191.934-.24 1.426-.24.836 0 1.524.24 2.016.718zm12.932 16.115l-.099 1.53-6.687-.43.098-1.53 6.688.43zm1.377.143c.196-.191.442-.239.688-.239.246 0 .492.144.64.335.147.191.245.43.245.718 0 .287-.098.478-.295.67-.197.19-.393.239-.64.239-.294 0-.49-.144-.688-.335-.196-.192-.245-.43-.245-.718 0-.24.098-.478.295-.67zM55.075 70.352c-.688-.191-1.278-.67-1.72-1.53l-1.87-3.254 1.377-.718 1.77 3.11c.296.479.59.813.984.91.394.143.787.047 1.23-.192.491-.287.836-.622.934-1.1.147-.431.049-.958-.295-1.532l-1.623-2.87 1.377-.718 3.196 5.693-1.327.718-.394-.718a2.408 2.408 0 0 1-.54 1.053c-.247.335-.64.574-1.033.813-.689.383-1.377.527-2.066.335zm-4.627 3.211h-1.869l.394-5.694h1.23l.245 5.694zm-.098-8.325c.196.191.295.43.295.67 0 .287-.099.478-.295.67-.197.191-.443.239-.738.239s-.54-.096-.688-.287c-.197-.192-.295-.383-.295-.67 0-.287.098-.478.295-.67a.984.984 0 0 1 .688-.287c.295.048.54.144.738.335z"/><path d="M9.335 29.254l1.033 1.148-6.933 6.029-1.033-1.148 6.933-6.03zm.446 3.97l1.23.91-4.082 5.119-1.23-.91 4.082-5.119zm.885-1.004a.697.697 0 0 1 .197-.67c.197-.192.393-.335.64-.335.245 0 .491.048.737.24a.974.974 0 0 1 .393.621c.05.24 0 .478-.147.67a1.098 1.098 0 0 1-.64.383c-.245.047-.491-.048-.737-.192a1.158 1.158 0 0 1-.443-.717zm7.522 5.211l-5.213 4.928-1.475-.622-.098-7.08 1.524.621v5.215l3.885-3.636 1.377.574zm6.295 3.691l-5.262.095c.099.479.344.862.738 1.149.393.287.885.382 1.475.382.738 0 1.328-.239 1.82-.717l.835.909a3.23 3.23 0 0 1-1.13.813c-.443.191-.984.287-1.525.287a5.132 5.132 0 0 1-1.967-.383 3.808 3.808 0 0 1-1.328-1.148c-.295-.526-.491-1.052-.491-1.722 0-.622.147-1.196.393-1.723a2.92 2.92 0 0 1 1.23-1.196 3.717 3.717 0 0 1 1.77-.43c.639 0 1.229.143 1.77.382.54.287.934.67 1.23 1.149.294.526.442 1.1.442 1.77v.383zm-4.672-2.058c-.344.287-.54.67-.59 1.149l3.787-.048c-.099-.479-.296-.861-.64-1.149-.344-.287-.787-.43-1.278-.43a2 2 0 0 0-1.279.478zm9.405-2.778c-.197-.191-.295-.383-.295-.67 0-.239.099-.478.295-.67.197-.19.443-.239.738-.239s.54.096.737.24a.763.763 0 0 1 .295.621c0 .288-.098.479-.295.67a1.015 1.015 0 0 1-.737.287.825.825 0 0 1-.738-.239zm-.098 1.34h1.573v6.507h-1.573v-6.507zm9.242.669c.492.479.787 1.197.787 2.153v3.732h-1.573v-3.588c0-.574-.148-1.005-.394-1.292-.295-.287-.688-.43-1.18-.43-.59 0-1.033.19-1.377.526-.344.335-.492.813-.492 1.435v3.301h-1.573v-6.506h1.475v.86a2.39 2.39 0 0 1 .984-.67 3.853 3.853 0 0 1 1.327-.238c.836 0 1.525.239 2.016.717zm18.044 7.215a3.407 3.407 0 0 1 0-1.722c.147-.574.491-1.052.934-1.53.492-.431.983-.719 1.573-.862.59-.144 1.18-.096 1.77.048.59.191 1.132.526 1.574 1.005.492.478.787 1.004.984 1.579a3.408 3.408 0 0 1 0 1.722c-.148.574-.492 1.053-.934 1.531-.492.43-.984.718-1.574.861-.59.144-1.18.096-1.77-.048a3.676 3.676 0 0 1-1.574-1.004 3.885 3.885 0 0 1-.983-1.58zm3.343 1.293c.541 0 1.033-.192 1.476-.622.442-.431.688-.91.688-1.436a1.89 1.89 0 0 0-.59-1.387c-.393-.383-.885-.622-1.377-.622-.54 0-1.033.191-1.475.622-.443.43-.688.909-.688 1.435s.147.957.59 1.388c.393.43.835.622 1.376.622zm1.328 6.652c-.197-.143-.345-.335-.492-.526a3.653 3.653 0 0 1-.344-.766c-.197-.67-.148-1.292.098-1.722.246-.479.737-.814 1.475-1.005l3.098-.813-.295-1.053 1.23-.335.294 1.053 1.476-.383.393 1.483-1.475.383.442 1.675-1.229.335-.442-1.675-3.05.813c-.294.096-.54.24-.639.43-.147.192-.147.432-.049.719.099.335.246.574.492.765l-.983.622zm-.595 4.548c.492-.335 1.082-.478 1.673-.526.59-.048 1.18.143 1.77.43.59.288 1.032.718 1.327 1.197.296.478.443 1.052.443 1.626a3.33 3.33 0 0 1-.492 1.77c-.344.575-.737 1.053-1.278 1.388-.492.335-1.082.479-1.672.527-.59 0-1.18-.144-1.77-.431a3.192 3.192 0 0 1-1.328-1.196c-.295-.527-.492-1.053-.443-1.675 0-.622.148-1.196.492-1.77.344-.574.738-1.005 1.279-1.34zm-.245 3.445c.147.478.491.91 1.081 1.196.541.287 1.082.383 1.623.24a1.81 1.81 0 0 0 1.18-.958 1.782 1.782 0 0 0 .197-1.483c-.147-.478-.492-.909-1.082-1.196-.54-.287-1.081-.383-1.573-.24-.492.144-.885.431-1.18.958-.345.526-.443 1.005-.246 1.483z"/></symbol><symbol viewBox="0 0 11 32" id="tel" xmlns="http://www.w3.org/2000/svg"><path d="M2.5 9.8C3.328 9.8 4 7.83 4 5.4 4 2.97 3.328 1 2.5 1S1 2.97 1 5.4c0 2.43.672 4.4 1.5 4.4zm0 20.3c.828 0 1.5-1.97 1.5-4.4 0-2.43-.672-4.4-1.5-4.4S1 23.27 1 25.7c0 2.43.672 4.4 1.5 4.4z"/><path d="M2.5 1s7.3.4 7.3 8.7v11.6S9.3 30 2.5 30"/><path d="M2.5 21.3s3 .2 3-1.5v-8.6c0-.9-.8-1.6-3-1.6"/></symbol><symbol viewBox="0 0 64 64" id="up" xmlns="http://www.w3.org/2000/svg"><path d="M0 0h64v64H0z"/><path d="M15.072 41.2V51h-1.021v-4.522H7.917V51H6.882v-9.8h1.036v4.368h6.132V41.2h1.022zm5.605 2.38c.96 0 1.698.243 2.212.728.513.476.77 1.185.77 2.128V51h-.953v-1.148a2.272 2.272 0 0 1-.994.896c-.429.215-.942.322-1.54.322-.82 0-1.474-.196-1.96-.588-.485-.392-.727-.91-.727-1.554 0-.625.224-1.13.672-1.512.457-.383 1.18-.574 2.17-.574h2.337v-.448c0-.635-.177-1.115-.532-1.442-.354-.336-.872-.504-1.554-.504-.466 0-.914.08-1.343.238-.43.15-.799.36-1.107.63l-.448-.742c.374-.317.822-.56 1.345-.728a5.107 5.107 0 0 1 1.652-.266zm-.35 6.706c.56 0 1.04-.126 1.441-.378.402-.261.7-.635.896-1.12v-1.204h-2.31c-1.26 0-1.89.439-1.89 1.316 0 .43.164.77.49 1.022.327.243.784.364 1.372.364zm10.668-3.094c.998.233 1.498.835 1.498 1.806 0 .644-.238 1.139-.714 1.484S30.593 51 29.65 51h-3.346v-7.364h3.248c.84 0 1.498.163 1.974.49.476.327.714.793.714 1.4 0 .401-.112.747-.336 1.036-.215.28-.518.49-.91.63zm-3.724-.28h2.212c.569 0 1.003-.107 1.302-.322.308-.215.462-.527.462-.938 0-.41-.154-.719-.462-.924-.299-.205-.733-.308-1.302-.308H27.27v2.492zm2.338 3.304c.634 0 1.11-.103 1.428-.308.317-.205.476-.527.476-.966 0-.439-.145-.76-.434-.966-.29-.215-.747-.322-1.372-.322H27.27v2.562h2.338zm11.653-2.59h-6.16c.056.765.35 1.386.882 1.862.532.467 1.204.7 2.016.7.458 0 .877-.08 1.26-.238.383-.168.714-.41.994-.728l.56.644a3.15 3.15 0 0 1-1.232.896 4.092 4.092 0 0 1-1.61.308c-.756 0-1.428-.159-2.016-.476a3.545 3.545 0 0 1-1.358-1.344c-.326-.57-.49-1.213-.49-1.932 0-.719.154-1.363.462-1.932a3.461 3.461 0 0 1 1.288-1.33 3.634 3.634 0 0 1 1.848-.476c.681 0 1.293.159 1.834.476.541.317.966.76 1.274 1.33.308.56.462 1.204.462 1.932l-.014.308zm-3.556-3.192c-.71 0-1.306.229-1.792.686-.476.448-.747 1.036-.812 1.764h5.222c-.065-.728-.34-1.316-.826-1.764-.476-.457-1.073-.686-1.792-.686zm9.564-.854c.691 0 1.316.159 1.877.476.56.308.998.747 1.316 1.316.317.57.475 1.218.475 1.946 0 .737-.158 1.39-.476 1.96a3.402 3.402 0 0 1-1.316 1.33c-.55.308-1.175.462-1.876.462a3.58 3.58 0 0 1-1.623-.364 3.135 3.135 0 0 1-1.176-1.092v4.102h-.994v-10.08h.952v1.456c.298-.485.69-.859 1.175-1.12a3.511 3.511 0 0 1 1.666-.392zm-.07 6.608c.514 0 .98-.117 1.4-.35a2.52 2.52 0 0 0 .98-1.022c.243-.439.364-.938.364-1.498s-.12-1.055-.364-1.484a2.522 2.522 0 0 0-.98-1.022 2.747 2.747 0 0 0-1.4-.364c-.522 0-.994.121-1.414.364-.41.243-.737.583-.98 1.022-.233.43-.35.924-.35 1.484 0 .56.117 1.06.35 1.498.243.439.57.78.98 1.022.42.233.892.35 1.414.35zM57.42 51l-2.338-3.08L52.73 51h-1.12l2.912-3.78-2.772-3.584h1.12l2.212 2.884 2.212-2.884h1.092l-2.772 3.584 2.94 3.78H57.42zM32.354 10.646a.5.5 0 0 0-.708 0l-3.181 3.182a.5.5 0 1 0 .707.708L32 11.707l2.828 2.829a.5.5 0 1 0 .707-.708l-3.181-3.182zM32.5 31V11h-1v20h1z"/></symbol><symbol viewBox="0 0 32 32" id="vk" xmlns="http://www.w3.org/2000/svg"><path d="M26 1H6C3.2 1 1 3.3 1 6v20c0 2.7 2.3 5 5 5h20c2.8 0 5-2.3 5-5V6c0-2.7-2.2-5-5-5z"/><path clip-rule="evenodd" d="M5.799 11.698s-.4-.5-.2-.8c.1-.3.1-.3.7-.3h2.8s.4 0 .6.2c.2.2.4.8.4.8l1.3 2.4s1 1.9 1.7 1.8c.5 0 .6-.8.6-.8s.2-1.5.1-2.8c-.2-1.3-.7-1.3-.7-1.3l-.5-.2s.1-.3.3-.4c.2-.1.9-.4 1.8-.4s2.1 0 2.6.2.6.7.6.9c0 .2-.1 3.4-.1 3.5 0 .2.1 1.3.6 1.2.3-.1.4-.1.5-.2.1-.1 1.2-1.4 1.8-2.5.6-1.1 1-2.1 1.1-2.3.1-.1.1-.2.5-.2h3.6c.1 0 .8.1.7.6-.1.5-.5 1.2-.8 1.7-.3.5-2.2 3-2.2 3s-.6.7-.4 1.1c.2.4.9 1.1.9 1.1l1.6 1.7s.9.9.9 1.5-.6.6-.8.6c-.2 0-3.3.1-3.3.1s-1-.3-1.6-1c-.6-.7-1.5-1.7-1.7-1.7-.2-.1-.5-.2-.9.4-.4.6-.3 1.3-.3 1.6 0 .4-.3.7-.9.7h-2.3c-.2 0-2.5-.2-4.8-3.2s-3.2-4.8-3.5-5.6c-.4-.7-.7-1.4-.7-1.4z"/></symbol></svg>