<svg width="34" height="19" viewBox="0 0 34 19" fill="none" xmlns="http://www.w3.org/2000/svg">
<path d="M12 2.47126L14.9425 1L19.3563 13.5057L30.3908 12.0345L33.3333 4.67816H16.2667" stroke="#333333" stroke-miterlimit="10" stroke-linecap="round" stroke-linejoin="round"/>
<path d="M9 10L1 10" stroke="#333333" stroke-linecap="round"/>
<path d="M5 14L5 6" stroke="#333333" stroke-linecap="round"/>
<path d="M17.8853 17.9196C18.6979 17.9196 19.3566 17.2609 19.3566 16.4483C19.3566 15.6358 18.6979 14.9771 17.8853 14.9771C17.0728 14.9771 16.4141 15.6358 16.4141 16.4483C16.4141 17.2609 17.0728 17.9196 17.8853 17.9196Z" stroke="#333333" stroke-miterlimit="10" stroke-linecap="round" stroke-linejoin="round"/>
<path d="M30.3892 17.9191C31.2018 17.9191 31.8605 17.2604 31.8605 16.4478C31.8605 15.6353 31.2018 14.9766 30.3892 14.9766C29.5767 14.9766 28.918 15.6353 28.918 16.4478C28.918 17.2604 29.5767 17.9191 30.3892 17.9191Z" stroke="#333333" stroke-miterlimit="10" stroke-linecap="round" stroke-linejoin="round"/>
</svg>
