<svg width="24" height="19" viewBox="0 0 24 19" fill="none" xmlns="http://www.w3.org/2000/svg">
<path d="M1 2.47126L3.94253 1L8.35632 13.5057L19.3908 12.0345L22.3333 4.67816H5.26667" stroke="white" stroke-width="2" stroke-miterlimit="10" stroke-linecap="round" stroke-linejoin="round"/>
<path d="M6.88508 17.9196C7.69764 17.9196 8.35635 17.2609 8.35635 16.4483C8.35635 15.6358 7.69764 14.9771 6.88508 14.9771C6.07253 14.9771 5.41382 15.6358 5.41382 16.4483C5.41382 17.2609 6.07253 17.9196 6.88508 17.9196Z" stroke="white" stroke-width="2" stroke-miterlimit="10" stroke-linecap="round" stroke-linejoin="round"/>
<path d="M19.3892 17.9191C20.2018 17.9191 20.8605 17.2604 20.8605 16.4478C20.8605 15.6353 20.2018 14.9766 19.3892 14.9766C18.5767 14.9766 17.918 15.6353 17.918 16.4478C17.918 17.2604 18.5767 17.9191 19.3892 17.9191Z" stroke="white" stroke-width="2" stroke-miterlimit="10" stroke-linecap="round" stroke-linejoin="round"/>
</svg>
