<svg width="26" height="26" viewBox="0 0 26 26" fill="none" xmlns="http://www.w3.org/2000/svg">
<path d="M24.2971 4.52078L16.7375 2.40625L9.15586 4.54191L2.10534 2.54184C1.95426 2.49897 1.7953 2.49173 1.64094 2.52067C1.48659 2.54961 1.34105 2.61396 1.21577 2.70864C1.09048 2.80333 0.988855 2.92578 0.918883 3.06638C0.848912 3.20697 0.812497 3.36187 0.8125 3.51892V20.815C0.813268 21.0801 0.900081 21.3377 1.05988 21.5491C1.21968 21.7606 1.44382 21.9144 1.69858 21.9875L9.15413 24.1025L16.7391 21.966L23.8984 23.9686C24.0493 24.0108 24.208 24.0175 24.3619 23.9882C24.5159 23.9588 24.661 23.8943 24.7859 23.7995C24.9107 23.7047 25.0119 23.5824 25.0816 23.442C25.1513 23.3016 25.1875 23.147 25.1875 22.9902V5.69449C25.1868 5.42865 25.0996 5.17027 24.9389 4.95848C24.7782 4.74669 24.5529 4.59304 24.2971 4.52078ZM8.27734 22.1644L2.4375 20.5077V4.32517L8.27734 5.98186V22.1644ZM15.9258 20.5066L9.90234 22.2033V6.01984L15.9258 4.32314V20.5066ZM23.5625 22.187L17.5508 20.5056V4.32106L23.5625 6.00248V22.187Z" fill="#E13EAF"/>
</svg>
