<svg width="32" height="32" viewBox="0 0 32 32" fill="none" xmlns="http://www.w3.org/2000/svg">
<path d="M16 20C18.2091 20 20 18.2091 20 16C20 13.7909 18.2091 12 16 12C13.7909 12 12 13.7909 12 16C12 18.2091 13.7909 20 16 20Z" stroke="#333333" stroke-width="2" stroke-miterlimit="10" stroke-linecap="round" stroke-linejoin="round"/>
<path d="M21 12C20.4477 12 20 11.5523 20 11C20 10.4477 20.4477 10 21 10C21.5523 10 22 10.4477 22 11C22 11.5523 21.5523 12 21 12Z" fill="#333333"/>
<rect x="7" y="7" width="18" height="18" rx="5" stroke="#333333" stroke-width="2"/>
<rect x="1" y="1" width="30" height="30" rx="7" stroke="#333333" stroke-width="2"/>
</svg>
