<svg width="71" height="74" viewBox="0 0 71 74" fill="none" xmlns="http://www.w3.org/2000/svg">
<path d="M3.92882 27.862C2.79781 25.4218 2.15855 22.7903 2.15855 20.1109C2.15855 9.91977 10.6657 1.64243 21.1397 1.64243C31.6138 1.64243 40.1209 9.91977 40.1209 20.1109C40.1209 26.1395 38.449 31.4983 37.8098 33.3643H39.1375C39.8751 31.1633 41.3995 25.996 41.3995 20.1109C41.3995 9.24993 32.3514 0.398438 21.1889 0.398438C10.0264 0.398438 0.929199 9.24993 0.929199 20.1109C0.929199 22.9817 1.56846 25.8525 2.84699 28.484L3.92882 27.862Z" fill="white"/>
<path d="M44.5954 68.3891C38.7437 66.2839 34.6131 60.8295 34.6131 54.466C34.6131 52.0258 35.2524 49.6814 36.3342 47.6719H34.859C33.8755 49.7292 33.2854 52.0258 33.2854 54.466C33.2854 61.4515 37.8586 67.3844 44.2512 69.5853L44.5954 68.3891Z" fill="white"/>
<path d="M54.3821 38.6334C54.8738 39.1119 55.0705 39.8296 55.0705 40.7865L54.923 44.5185L53.3494 44.4706L53.4478 40.93C53.4478 40.3559 53.3494 39.9253 53.1035 39.6382C52.8577 39.3511 52.4643 39.2076 52.0217 39.1597C51.4808 39.1597 51.0874 39.3033 50.7432 39.6382C50.399 39.9731 50.2515 40.4516 50.2023 41.0736L50.1039 44.3749L48.5304 44.3271L48.6287 40.7865C48.6287 40.2123 48.5304 39.7817 48.2845 39.4947C48.0386 39.2076 47.6452 39.064 47.2027 39.0162C46.6617 39.0162 46.2192 39.1597 45.9241 39.4947C45.5799 39.8296 45.4324 40.308 45.3832 40.93L45.2849 44.2314L43.7113 44.1836L43.9572 37.6765L45.4324 37.7244L45.3832 38.5377C45.6291 38.2507 45.9733 38.0593 46.3667 37.9157C46.7601 37.7722 47.1535 37.7244 47.6452 37.7244C48.137 37.7244 48.5795 37.8679 48.9729 38.0593C49.3663 38.2507 49.6614 38.5377 49.8581 38.9205C50.1531 38.5856 50.4973 38.3464 50.9399 38.155C51.3825 37.9636 51.8742 37.9157 52.3659 37.9157C53.2019 37.9157 53.8903 38.155 54.3821 38.6334Z" fill="white"/>
<path d="M67.3137 54.7478L67.2154 56.2788L60.5277 55.8482L60.6261 54.3171L67.3137 54.7478ZM68.6906 54.8913C68.8873 54.6999 69.1332 54.6521 69.379 54.6521C69.6249 54.6521 69.8708 54.7956 70.0183 54.987C70.1658 55.1784 70.2642 55.4176 70.2642 55.7047C70.2642 55.9917 70.1658 56.1831 69.9691 56.3745C69.7724 56.5659 69.5757 56.6137 69.3299 56.6137C69.0348 56.6137 68.8381 56.4702 68.6414 56.2788C68.4447 56.0874 68.3956 55.8482 68.3956 55.5611C68.3956 55.3219 68.4939 55.0827 68.6906 54.8913Z" fill="white"/>
<path d="M55.0753 70.3523C54.3869 70.161 53.7968 69.6825 53.3542 68.8213L51.4856 65.5677L52.8625 64.8501L54.6327 67.96C54.9278 68.4385 55.2228 68.7734 55.6162 68.8691C56.0096 69.0127 56.403 68.917 56.8456 68.6777C57.3373 68.3907 57.6815 68.0557 57.7799 67.5773C57.9274 67.1467 57.829 66.6204 57.4848 66.0462L55.8621 63.1755L57.239 62.4578L60.4353 68.1514L59.1076 68.8691L58.7142 68.1514C58.6158 68.5342 58.4683 68.8691 58.1733 69.204C57.9274 69.539 57.534 69.7782 57.1406 70.0174C56.4522 70.4002 55.7637 70.5437 55.0753 70.3523Z" fill="white"/>
<path d="M50.448 73.5632H48.5793L48.9727 67.8695H50.2021L50.448 73.5632ZM50.3496 65.238C50.5463 65.4294 50.6447 65.6686 50.6447 65.9078C50.6447 66.1949 50.5463 66.3863 50.3496 66.5777C50.1529 66.7691 49.907 66.8169 49.612 66.8169C49.317 66.8169 49.0711 66.7212 48.9236 66.5298C48.7269 66.3385 48.6285 66.1471 48.6285 65.86C48.6285 65.5729 48.7269 65.3815 48.9236 65.1901C49.1203 64.9988 49.3661 64.9031 49.612 64.9031C49.907 64.9509 50.1529 65.0466 50.3496 65.238Z" fill="white"/>
<path d="M9.33541 29.2539L10.3681 30.4022L3.43451 36.4308L2.40186 35.2825L9.33541 29.2539Z" fill="white"/>
<path d="M9.78116 33.2244L11.0105 34.1334L6.92906 39.253L5.69971 38.3439L9.78116 33.2244ZM10.6663 32.2196C10.6171 31.9804 10.6663 31.7411 10.863 31.5498C11.0597 31.3584 11.2564 31.2148 11.5023 31.2148C11.7481 31.2148 11.994 31.2627 12.2399 31.4541C12.4857 31.6455 12.5841 31.8368 12.6333 32.0761C12.6824 32.3153 12.6333 32.5545 12.4857 32.7459C12.3382 32.9373 12.0923 33.0808 11.8465 33.1287C11.6006 33.1765 11.3547 33.0808 11.1089 32.9373C10.8138 32.6981 10.7155 32.4588 10.6663 32.2196Z" fill="white"/>
<path d="M18.1879 37.4313L12.9754 42.3594L11.5002 41.7374L11.4019 34.6562L12.9263 35.2782V40.4934L16.811 36.8572L18.1879 37.4313Z" fill="white"/>
<path d="M24.4828 41.1216L19.2212 41.2173C19.3195 41.6958 19.5654 42.0786 19.9588 42.3656C20.3522 42.6527 20.8439 42.7484 21.434 42.7484C22.1716 42.7484 22.7617 42.5092 23.2534 42.0307L24.0894 42.9398C23.7943 43.2747 23.4009 43.5618 22.9584 43.7532C22.5158 43.9445 21.9749 44.0402 21.434 44.0402C20.6964 44.0402 20.0571 43.8967 19.467 43.6575C18.9261 43.3704 18.4835 42.9876 18.1393 42.5092C17.8443 41.9829 17.6476 41.4566 17.6476 40.7867C17.6476 40.1647 17.7951 39.5906 18.041 39.0643C18.336 38.538 18.7294 38.1552 19.2703 37.8681C19.8112 37.581 20.4013 37.4375 21.0406 37.4375C21.6799 37.4375 22.2699 37.581 22.8109 37.8203C23.3518 38.1073 23.7452 38.4901 24.0402 38.9686C24.3352 39.4949 24.4828 40.069 24.4828 40.7389C24.4828 40.7867 24.4828 40.9303 24.4828 41.1216ZM19.8112 39.0643C19.467 39.3513 19.2703 39.7341 19.2212 40.2126L23.0076 40.1647C22.9092 39.6863 22.7125 39.3035 22.3683 39.0164C22.0241 38.7293 21.5815 38.5858 21.0898 38.5858C20.598 38.5858 20.1555 38.7772 19.8112 39.0643Z" fill="white"/>
<path d="M29.2162 36.2862C29.0195 36.0948 28.9211 35.9034 28.9211 35.6163C28.9211 35.3771 29.0195 35.1379 29.2162 34.9465C29.4129 34.7551 29.6587 34.7073 29.9538 34.7073C30.2488 34.7073 30.4947 34.803 30.6914 34.9465C30.8881 35.09 30.9864 35.3293 30.9864 35.5685C30.9864 35.8556 30.8881 36.047 30.6914 36.2383C30.4947 36.4297 30.2488 36.5254 29.9538 36.5254C29.6587 36.5733 29.4129 36.4776 29.2162 36.2862ZM29.1178 37.6259H30.6914V44.1329H29.1178V37.6259Z" fill="white"/>
<path d="M38.3604 38.2953C38.8521 38.7738 39.1472 39.4915 39.1472 40.4484V44.1804H37.5736V40.5919C37.5736 40.0178 37.4261 39.5872 37.1802 39.3001C36.8852 39.013 36.4918 38.8695 36 38.8695C35.41 38.8695 34.9674 39.0609 34.6232 39.3958C34.279 39.7307 34.1314 40.2092 34.1314 40.8312V44.1325H32.5579V37.6255H34.0331V38.4867C34.279 38.1996 34.6232 37.9604 35.0166 37.8169C35.41 37.6733 35.8525 37.5776 36.3443 37.5776C37.1802 37.5776 37.8687 37.8169 38.3604 38.2953Z" fill="white"/>
<path d="M56.4036 45.5107C56.2561 44.9366 56.2561 44.3624 56.4036 43.7883C56.5511 43.2141 56.8953 42.7357 57.3379 42.2572C57.8297 41.8266 58.3214 41.5395 58.9115 41.396C59.5016 41.2525 60.0917 41.3003 60.6818 41.4438C61.2718 41.6352 61.8128 41.9701 62.2553 42.4486C62.7471 42.9271 63.0421 43.4534 63.2388 44.0275C63.3863 44.6017 63.3863 45.1758 63.2388 45.75C63.0913 46.3241 62.7471 46.8026 62.3045 47.281C61.8128 47.7117 61.321 47.9987 60.7309 48.1423C60.1408 48.2858 59.5507 48.238 58.9607 48.0944C58.3706 47.903 57.8297 47.5681 57.3871 47.0897C56.8954 46.6112 56.6003 46.0849 56.4036 45.5107ZM59.7474 46.8026C60.2884 46.8026 60.7801 46.6112 61.2227 46.1806C61.6652 45.75 61.9111 45.2715 61.9111 44.7452C61.9111 44.2189 61.7144 43.7404 61.321 43.3577C60.9276 42.9749 60.4359 42.7357 59.9441 42.7357C59.4032 42.7357 58.9115 42.9271 58.4689 43.3577C58.0264 43.7883 57.7805 44.2668 57.7805 44.7931C57.7805 45.3194 57.928 45.75 58.3706 46.1806C58.764 46.6112 59.2065 46.8026 59.7474 46.8026Z" fill="white"/>
<path d="M61.0745 53.4551C60.8778 53.3115 60.7303 53.1202 60.5828 52.9288C60.4353 52.6895 60.3369 52.4503 60.2386 52.1632C60.0419 51.4934 60.091 50.8714 60.3369 50.4408C60.5828 49.9623 61.0745 49.6274 61.8121 49.436L64.9101 48.6226L64.6151 47.57L65.8444 47.2351L66.1395 48.2877L67.6147 47.905L68.0081 49.3882L66.5329 49.7709L66.9754 51.4455L65.7461 51.7805L65.3035 50.1059L62.2547 50.9192C61.9597 51.0149 61.7138 51.1585 61.6154 51.3499C61.4679 51.5412 61.4679 51.7805 61.5663 52.0675C61.6646 52.4025 61.8121 52.6417 62.058 52.8331L61.0745 53.4551Z" fill="white"/>
<path d="M60.4806 58.0031C60.9723 57.6682 61.5624 57.5247 62.1525 57.4768C62.7426 57.429 63.3326 57.6203 63.9227 57.9074C64.5128 58.1945 64.9554 58.6251 65.2504 59.1036C65.5455 59.582 65.693 60.1562 65.693 60.7303C65.693 61.3523 65.5455 61.9265 65.2013 62.5006C64.857 63.0748 64.4636 63.5532 63.9227 63.8882C63.431 64.2231 62.8409 64.3666 62.2508 64.4145C61.6607 64.4145 61.0706 64.2709 60.4806 63.9838C59.8905 63.6968 59.4479 63.2662 59.1529 62.7877C58.8578 62.2614 58.6611 61.7351 58.7103 61.1131C58.7103 60.4911 58.8578 59.9169 59.202 59.3428C59.5462 58.7686 59.9396 58.338 60.4806 58.0031ZM60.2347 61.448C60.3822 61.9265 60.7264 62.3571 61.3165 62.6442C61.8574 62.9312 62.3983 63.0269 62.9393 62.8834C63.4802 62.7399 63.8736 62.4049 64.1194 61.9265C64.4145 61.448 64.4636 60.9217 64.3161 60.4433C64.1686 59.9648 63.8244 59.5342 63.2343 59.2471C62.6934 58.96 62.1525 58.8643 61.6607 59.0079C61.169 59.1514 60.7756 59.4385 60.4806 59.9648C60.1363 60.4911 60.038 60.9696 60.2347 61.448Z" fill="white"/>
</svg>
