<svg width="35" height="35" viewBox="0 0 35 35" fill="none" xmlns="http://www.w3.org/2000/svg">
<path d="M10.5464 1C5.21464 1 0.976562 5.23808 0.976562 10.5699C0.976562 11.937 1.3867 13.3041 1.93355 14.5345C1.79684 15.4915 1.66012 16.4485 1.66012 17.4055C1.66012 26.0183 8.76916 33.1274 17.382 33.1274C18.339 33.1274 19.296 32.9906 20.253 32.8539C21.4834 33.4008 22.7138 33.8109 24.2176 33.8109C29.5494 33.8109 33.7875 29.5728 33.7875 24.2411C33.7875 22.8739 33.3773 21.5068 32.8305 20.2764C32.9672 19.3194 33.1039 18.3624 33.1039 17.4055C33.1039 8.79259 25.9949 1.68356 17.382 1.68356C16.425 1.68356 15.4681 1.82027 14.5111 1.95699C13.2807 1.41014 11.9135 1 10.5464 1ZM17.1086 8.10903C13.6908 8.10903 10.1363 9.47615 10.1363 13.3041C10.1363 15.0814 10.8198 17.132 14.3744 17.9523L18.8859 19.046C20.253 19.3194 20.6631 20.1397 20.6631 20.8233C20.6631 21.917 19.5694 23.1474 17.5187 23.1474C13.4174 23.1474 13.9642 20.003 11.7768 20.003C10.8198 20.003 10.1363 20.6866 10.1363 21.6435C10.1363 23.5575 12.4604 26.0183 17.5187 26.0183C22.3037 26.0183 24.7645 23.6942 24.7645 20.5498C24.7645 18.4992 23.8075 16.4485 20.253 15.6282L16.6985 14.9446C15.4681 14.6712 13.9642 14.2611 13.9642 13.1674C13.9642 11.937 14.9212 11.1167 16.8352 11.1167C20.5264 11.1167 20.253 13.7142 22.0302 13.7142C22.9872 13.7142 23.8075 13.1674 23.8075 12.2104C23.9442 9.74958 20.253 8.10903 17.1086 8.10903Z" stroke="#333333" stroke-width="1.58091" stroke-miterlimit="10"/>
</svg>
