<svg width="11" height="32" viewBox="0 0 11 32" fill="none" xmlns="http://www.w3.org/2000/svg">
<path d="M2.5 9.8C3.32843 9.8 4 7.83005 4 5.4C4 2.96995 3.32843 1 2.5 1C1.67157 1 1 2.96995 1 5.4C1 7.83005 1.67157 9.8 2.5 9.8Z" stroke="#333333" stroke-width="2" stroke-miterlimit="10" stroke-linecap="round" stroke-linejoin="round"/>
<path d="M2.5 30.1C3.32843 30.1 4 28.1301 4 25.7001C4 23.27 3.32843 21.3 2.5 21.3C1.67157 21.3 1 23.27 1 25.7001C1 28.1301 1.67157 30.1 2.5 30.1Z" stroke="#333333" stroke-width="2" stroke-miterlimit="10" stroke-linecap="round" stroke-linejoin="round"/>
<path d="M2.5 1C2.5 1 9.8 1.4 9.8 9.7C9.8 18 9.8 21.3 9.8 21.3C9.8 21.3 9.3 30 2.5 30" stroke="#333333" stroke-width="2" stroke-miterlimit="10" stroke-linecap="round" stroke-linejoin="round"/>
<path d="M2.5 21.3001C2.5 21.3001 5.5 21.5001 5.5 19.8001C5.5 18.1001 5.5 12.1001 5.5 11.2001C5.5 10.3001 4.7 9.6001 2.5 9.6001" stroke="#333333" stroke-width="2" stroke-miterlimit="10" stroke-linecap="round" stroke-linejoin="round"/>
</svg>
