<svg width="34" height="34" viewBox="0 0 34 34" fill="none" xmlns="http://www.w3.org/2000/svg">
<path d="M25.726 7.92789C27.1643 7.4784 28.1275 8.12053 28.1275 9.08373C28.1275 9.08373 24.4417 24.9444 23.7996 26.2287C23.1574 27.513 22.1942 26.8708 22.1942 26.8708L16.7361 23.018C16.7361 23.018 15.7729 23.9812 14.4886 25.2655C13.2044 26.5498 12.5622 25.2655 12.5622 25.2655L10.3148 19.1652C10.3148 19.1652 6.73809 18.7607 5.49877 17.5599C4.36862 16.4683 5.33182 15.8261 5.33182 15.8261L25.726 7.92789ZM16.2481 18.7157C17.6996 16.9498 18.5134 15.9598 19.9649 14.1939L12.9477 16.9177L14.4857 20.5064L16.2481 18.7157Z" stroke="#333333" stroke-width="1.58091" stroke-miterlimit="10"/>
<path d="M30.6865 1.0249H3.07484C2.01532 1.0249 1.14844 1.89178 1.14844 2.9513V30.563C1.14844 31.6225 2.01532 32.4894 3.07484 32.4894H30.6865C31.7461 32.4894 32.6129 31.6225 32.6129 30.563V2.9513C32.6129 1.89178 31.7461 1.0249 30.6865 1.0249Z" stroke="#333333" stroke-width="1.58091" stroke-miterlimit="10"/>
</svg>
