<svg width="64" height="64" viewBox="0 0 64 64" fill="none" xmlns="http://www.w3.org/2000/svg">
<rect width="64" height="64" fill="#FFCF2B"/>
<path d="M15.0725 41.2V51H14.0505V46.478H7.91847V51H6.88247V41.2H7.91847V45.568H14.0505V41.2H15.0725ZM20.6765 43.58C21.6378 43.58 22.3752 43.8227 22.8885 44.308C23.4018 44.784 23.6585 45.4933 23.6585 46.436V51H22.7065V49.852C22.4825 50.2347 22.1512 50.5333 21.7125 50.748C21.2832 50.9627 20.7698 51.07 20.1725 51.07C19.3512 51.07 18.6978 50.874 18.2125 50.482C17.7272 50.09 17.4845 49.572 17.4845 48.928C17.4845 48.3027 17.7085 47.7987 18.1565 47.416C18.6138 47.0333 19.3372 46.842 20.3265 46.842H22.6645V46.394C22.6645 45.7593 22.4872 45.2787 22.1325 44.952C21.7778 44.616 21.2598 44.448 20.5785 44.448C20.1118 44.448 19.6638 44.5273 19.2345 44.686C18.8052 44.8353 18.4365 45.0453 18.1285 45.316L17.6805 44.574C18.0538 44.2567 18.5018 44.014 19.0245 43.846C19.5472 43.6687 20.0978 43.58 20.6765 43.58ZM20.3265 50.286C20.8865 50.286 21.3672 50.16 21.7685 49.908C22.1698 49.6467 22.4685 49.2733 22.6645 48.788V47.584H20.3545C19.0945 47.584 18.4645 48.0227 18.4645 48.9C18.4645 49.3293 18.6278 49.67 18.9545 49.922C19.2812 50.1647 19.7385 50.286 20.3265 50.286ZM30.9946 47.192C31.9933 47.4253 32.4926 48.0273 32.4926 48.998C32.4926 49.642 32.2546 50.1367 31.7786 50.482C31.3026 50.8273 30.5933 51 29.6506 51H26.3046V43.636H29.5526C30.3926 43.636 31.0506 43.7993 31.5266 44.126C32.0026 44.4527 32.2406 44.9193 32.2406 45.526C32.2406 45.9273 32.1286 46.2727 31.9046 46.562C31.69 46.842 31.3866 47.052 30.9946 47.192ZM27.2706 46.912H29.4826C30.052 46.912 30.486 46.8047 30.7846 46.59C31.0926 46.3753 31.2466 46.0627 31.2466 45.652C31.2466 45.2413 31.0926 44.9333 30.7846 44.728C30.486 44.5227 30.052 44.42 29.4826 44.42H27.2706V46.912ZM29.6086 50.216C30.2433 50.216 30.7193 50.1133 31.0366 49.908C31.354 49.7027 31.5126 49.3807 31.5126 48.942C31.5126 48.5033 31.368 48.1813 31.0786 47.976C30.7893 47.7613 30.332 47.654 29.7066 47.654H27.2706V50.216H29.6086ZM41.2622 47.626H35.1022C35.1582 48.3913 35.4522 49.012 35.9842 49.488C36.5162 49.9547 37.1882 50.188 38.0002 50.188C38.4575 50.188 38.8775 50.1087 39.2602 49.95C39.6429 49.782 39.9742 49.5393 40.2542 49.222L40.8142 49.866C40.4875 50.258 40.0769 50.5567 39.5822 50.762C39.0969 50.9673 38.5602 51.07 37.9722 51.07C37.2162 51.07 36.5442 50.9113 35.9562 50.594C35.3775 50.2673 34.9249 49.8193 34.5982 49.25C34.2715 48.6807 34.1082 48.0367 34.1082 47.318C34.1082 46.5993 34.2622 45.9553 34.5702 45.386C34.8875 44.8167 35.3169 44.3733 35.8582 44.056C36.4089 43.7387 37.0249 43.58 37.7062 43.58C38.3875 43.58 38.9989 43.7387 39.5402 44.056C40.0815 44.3733 40.5062 44.8167 40.8142 45.386C41.1222 45.946 41.2762 46.59 41.2762 47.318L41.2622 47.626ZM37.7062 44.434C36.9969 44.434 36.3995 44.6627 35.9142 45.12C35.4382 45.568 35.1675 46.156 35.1022 46.884H40.3242C40.2589 46.156 39.9835 45.568 39.4982 45.12C39.0222 44.6627 38.4249 44.434 37.7062 44.434ZM47.2705 43.58C47.9612 43.58 48.5865 43.7387 49.1465 44.056C49.7065 44.364 50.1452 44.8027 50.4625 45.372C50.7798 45.9413 50.9385 46.59 50.9385 47.318C50.9385 48.0553 50.7798 48.7087 50.4625 49.278C50.1452 49.8473 49.7065 50.2907 49.1465 50.608C48.5958 50.916 47.9705 51.07 47.2705 51.07C46.6732 51.07 46.1318 50.9487 45.6465 50.706C45.1705 50.454 44.7785 50.09 44.4705 49.614V53.716H43.4765V43.636H44.4285V45.092C44.7272 44.6067 45.1192 44.2333 45.6045 43.972C46.0992 43.7107 46.6545 43.58 47.2705 43.58ZM47.2005 50.188C47.7138 50.188 48.1805 50.0713 48.6005 49.838C49.0205 49.5953 49.3472 49.2547 49.5805 48.816C49.8232 48.3773 49.9445 47.878 49.9445 47.318C49.9445 46.758 49.8232 46.2633 49.5805 45.834C49.3472 45.3953 49.0205 45.0547 48.6005 44.812C48.1805 44.5693 47.7138 44.448 47.2005 44.448C46.6778 44.448 46.2065 44.5693 45.7865 44.812C45.3758 45.0547 45.0492 45.3953 44.8065 45.834C44.5732 46.2633 44.4565 46.758 44.4565 47.318C44.4565 47.878 44.5732 48.3773 44.8065 48.816C45.0492 49.2547 45.3758 49.5953 45.7865 49.838C46.2065 50.0713 46.6778 50.188 47.2005 50.188ZM57.4204 51L55.0824 47.92L52.7304 51H51.6104L54.5224 47.22L51.7504 43.636H52.8704L55.0824 46.52L57.2944 43.636H58.3864L55.6144 47.22L58.5544 51H57.4204Z" fill="#333333"/>
<path d="M32.3536 10.6464C32.1583 10.4512 31.8417 10.4512 31.6464 10.6464L28.4645 13.8284C28.2692 14.0237 28.2692 14.3403 28.4645 14.5355C28.6597 14.7308 28.9763 14.7308 29.1716 14.5355L32 11.7071L34.8284 14.5355C35.0237 14.7308 35.3403 14.7308 35.5355 14.5355C35.7308 14.3403 35.7308 14.0237 35.5355 13.8284L32.3536 10.6464ZM32.5 31L32.5 11L31.5 11L31.5 31L32.5 31Z" fill="white"/>
</svg>
