<svg width="32" height="32" viewBox="0 0 32 32" fill="none" xmlns="http://www.w3.org/2000/svg">
<path d="M26 1H6C3.2 1 1 3.3 1 6V26C1 28.7 3.3 31 6 31H26C28.8 31 31 28.7 31 26V6C31 3.3 28.8 1 26 1Z" stroke="#333333" stroke-width="2" stroke-miterlimit="10" stroke-linecap="round" stroke-linejoin="round"/>
<path fill-rule="evenodd" clip-rule="evenodd" d="M5.79897 11.6984C5.79897 11.6984 5.39897 11.1984 5.59897 10.8984C5.69897 10.5984 5.69897 10.5984 6.29897 10.5984C6.89897 10.5984 9.09897 10.5984 9.09897 10.5984C9.09897 10.5984 9.49897 10.5984 9.69897 10.7984C9.89897 10.9984 10.099 11.5984 10.099 11.5984L11.399 13.9984C11.399 13.9984 12.399 15.8984 13.099 15.7984C13.599 15.7984 13.699 14.9984 13.699 14.9984C13.699 14.9984 13.899 13.4984 13.799 12.1984C13.599 10.8984 13.099 10.8984 13.099 10.8984L12.599 10.6984C12.599 10.6984 12.699 10.3984 12.899 10.2984C13.099 10.1984 13.799 9.89844 14.699 9.89844C15.599 9.89844 16.799 9.89844 17.299 10.0984C17.799 10.2984 17.899 10.7984 17.899 10.9984C17.899 11.1984 17.799 14.3984 17.799 14.4984C17.799 14.6984 17.899 15.7984 18.399 15.6984C18.699 15.5984 18.799 15.5984 18.899 15.4984C18.999 15.3984 20.099 14.0984 20.699 12.9984C21.299 11.8984 21.699 10.8984 21.799 10.6984C21.899 10.5984 21.899 10.4984 22.299 10.4984C22.699 10.4984 25.799 10.4984 25.899 10.4984C25.999 10.4984 26.699 10.5984 26.599 11.0984C26.499 11.5984 26.099 12.2984 25.799 12.7984C25.499 13.2984 23.599 15.7984 23.599 15.7984C23.599 15.7984 22.999 16.4984 23.199 16.8984C23.399 17.2984 24.099 17.9984 24.099 17.9984L25.699 19.6984C25.699 19.6984 26.599 20.5984 26.599 21.1984C26.599 21.7984 25.999 21.7984 25.799 21.7984C25.599 21.7984 22.499 21.8984 22.499 21.8984C22.499 21.8984 21.499 21.5984 20.899 20.8984C20.299 20.1984 19.399 19.1984 19.199 19.1984C18.999 19.0984 18.699 18.9984 18.299 19.5984C17.899 20.1984 17.999 20.8984 17.999 21.1984C17.999 21.5984 17.699 21.8984 17.099 21.8984C16.499 21.8984 15.099 21.8984 14.799 21.8984C14.599 21.8984 12.299 21.6984 9.99897 18.6984C7.69897 15.6984 6.79897 13.8984 6.49897 13.0984C6.09897 12.3984 5.79897 11.6984 5.79897 11.6984Z" stroke="#333333" stroke-width="2" stroke-miterlimit="10" stroke-linecap="round" stroke-linejoin="round"/>
</svg>
