<svg width="35" height="35" viewBox="0 0 35 35" fill="none" xmlns="http://www.w3.org/2000/svg">
<path d="M24.9802 20.541L21.5643 17.1182C21.2877 16.8485 20.8521 16.8485 20.5824 17.1182L19.1165 18.5841L15.2027 14.6773L16.6687 13.2113C16.9383 12.9417 16.9383 12.4991 16.6687 12.2294L13.2459 8.80663C12.9762 8.53695 12.5406 8.53695 12.2709 8.80663L9.09009 11.9874C9.09009 11.9874 9.47732 15.023 14.124 19.6697C18.7638 24.3164 21.8063 24.6968 21.8063 24.6968L24.9802 21.5229C25.2568 21.2532 25.2568 20.8107 24.9802 20.541Z" stroke="#333333" stroke-width="1.58091" stroke-miterlimit="10"/>
<path d="M17.4091 1C8.35857 1 1 8.04388 1 16.7074C1 20.7215 2.56798 24.5122 5.41952 27.4372L2.88887 32.8266C2.77218 33.0709 2.81594 33.3502 2.99097 33.5596C3.12954 33.7202 3.34103 33.8109 3.55253 33.8109C3.61087 33.8109 3.66921 33.8039 3.72027 33.79L12.6395 31.7376C14.2002 32.1843 15.8047 32.4077 17.4018 32.4077C26.4523 32.4077 33.8109 25.3639 33.8109 16.7004C33.8109 8.0369 26.4596 1 17.4091 1Z" stroke="#333333" stroke-width="1.58091" stroke-miterlimit="10"/>
</svg>
